<?xml version="1.0" encoding="UTF-8"?>
<svg version="1.1" xmlns="http://www.w3.org/2000/svg" width="467" height="535">
<path d="M0 0 C2.26220668 2.3307584 2.969708 3.78598992 3.05078125 7.03515625 C2.875 9.1875 2.875 9.1875 2 13 C1.01 13.66 0.02 14.32 -1 15 C-0.525625 15.495 -0.05125 15.99 0.4375 16.5 C2.62167907 19.99468651 2.65913911 22.90966936 3 27 C5.23326151 24.76673849 5.71170977 23.35493352 6.69140625 20.38671875 C7.14870117 19.0090332 7.14870117 19.0090332 7.61523438 17.60351562 C7.92783203 16.64123047 8.24042969 15.67894531 8.5625 14.6875 C9.03719727 13.26147461 9.03719727 13.26147461 9.52148438 11.80664062 C10.92224935 7.55081329 12.18765764 3.41246242 13 -1 C14.32 -1.33 15.64 -1.66 17 -2 C17.37511719 -0.99582031 17.75023437 0.00835937 18.13671875 1.04296875 C21.37948959 9.71306911 24.65918721 18.36710322 28 27 C28.33 27 28.66 27 29 27 C28.86132739 22.89555833 28.71283897 18.7915296 28.5625 14.6875 C28.52318359 13.52025391 28.48386719 12.35300781 28.44335938 11.15039062 C28.40146484 10.03212891 28.35957031 8.91386719 28.31640625 7.76171875 C28.26141968 6.2142395 28.26141968 6.2142395 28.20532227 4.63549805 C28.09838758 1.89251742 28.09838758 1.89251742 27 -1 C33.73715035 -3.24571678 42.51800932 -2.97091239 49 0 C51.5625 2.75 51.5625 2.75 53 6 C52.3061256 9.60814688 51.59713506 11.40286494 49 14 C49.99 14.7115625 49.99 14.7115625 51 15.4375 C53.518591 18.66444473 53.5467096 20.70607764 53.7265625 24.68359375 C52.8470165 27.48773771 51.6169579 29.23311346 49.27783203 31.02514648 C43.85772076 33.34481468 37.42804718 32.49085856 31.625 32.3125 C30.20707042 32.28739387 28.78909821 32.26458475 27.37109375 32.24414062 C23.91317012 32.18930824 20.45685812 32.10316611 17 32 C17.33 31.01 17.66 30.02 18 29 C18.66 29 19.32 29 20 29 C19.34 27.02 18.68 25.04 18 23 C15.03 23 12.06 23 9 23 C8.67 24.98 8.34 26.96 8 29 C8.99 29 9.98 29 11 29 C11 29.99 11 30.98 11 32 C6.38 32 1.76 32 -3 32 C-5.45489316 26.87674471 -6.50341703 22.66104589 -7 17 C-8.65 17 -10.3 17 -12 17 C-12.33 20.96 -12.66 24.92 -13 29 C-12.01 29.33 -11.02 29.66 -10 30 C-10 30.66 -10 31.32 -10 32 C-14.29 32 -18.58 32 -23 32 C-23 31.01 -23 30.02 -23 29 C-22.01 29 -21.02 29 -20 29 C-20 20.09 -20 11.18 -20 2 C-20.99 1.67 -21.98 1.34 -23 1 C-23 0.34 -23 -0.32 -23 -1 C-15.60922826 -3.15851978 -7.16562984 -2.68711119 0 0 Z M-13 2 C-13 5.63 -13 9.26 -13 13 C-8.09245003 13.46225016 -8.09245003 13.46225016 -5 11 C-4.5 7.5 -4.5 7.5 -5 4 C-8.09245003 1.53774984 -8.09245003 1.53774984 -13 2 Z M37 2 C37 5.63 37 9.26 37 13 C41.66409356 13.45668855 41.66409356 13.45668855 43.8125 11.8125 C45.44052002 9.32762734 45.50975499 7.91288568 45 5 C43.32683688 3.07845307 43.32683688 3.07845307 41 2 C39.68 2 38.36 2 37 2 Z M13 13 C12.67 14.65 12.34 16.3 12 18 C13.32 18 14.64 18 16 18 C15.67 16.35 15.34 14.7 15 13 C14.34 13 13.68 13 13 13 Z M37 16 C37 20.29 37 24.58 37 29 C42.82137858 28.67523448 42.82137858 28.67523448 45 25.75 C46.27886888 23.03797654 46.27886888 23.03797654 45.3125 20.3125 C44.08067898 17.90339298 44.08067898 17.90339298 42 16 C40.35 16 38.7 16 37 16 Z " fill="#767479" transform="translate(86,448)"/>
<path d="M0 0 C0.71929687 0.29003906 1.43859375 0.58007812 2.1796875 0.87890625 C2.90414062 1.16636719 3.62859375 1.45382813 4.375 1.75 C4.92929688 1.97816406 5.48359375 2.20632812 6.0546875 2.44140625 C5.60176625 7.15178728 4.97003189 9.76553724 2.0546875 13.44140625 C2.0546875 14.76140625 2.0546875 16.08140625 2.0546875 17.44140625 C3.21226562 17.395 4.36984375 17.34859375 5.5625 17.30078125 C7.10153656 17.26324377 8.6406012 17.22684574 10.1796875 17.19140625 C10.94023437 17.15789062 11.70078125 17.124375 12.484375 17.08984375 C17.82370166 16.99778639 20.84600966 17.84608611 25.0546875 21.44140625 C26.2421875 24.12890625 26.2421875 24.12890625 27.0546875 26.44140625 C28.0446875 26.77140625 29.0346875 27.10140625 30.0546875 27.44140625 C31.33276333 29.99755791 31.05437539 31.54494868 30.8046875 34.37890625 C30.73765625 35.25417969 30.670625 36.12945312 30.6015625 37.03125 C29.98011408 39.77006199 29.28147188 40.77131796 27.0546875 42.44140625 C26.3946875 42.44140625 25.7346875 42.44140625 25.0546875 42.44140625 C24.7246875 43.43140625 24.3946875 44.42140625 24.0546875 45.44140625 C21.28327033 45.52230167 18.51420931 45.58184687 15.7421875 45.62890625 C14.56366211 45.66661133 14.56366211 45.66661133 13.36132812 45.70507812 C12.60400391 45.71474609 11.84667969 45.72441406 11.06640625 45.734375 C10.36990967 45.75008545 9.67341309 45.7657959 8.95581055 45.78198242 C6.50978967 45.34379068 5.62766664 44.30703267 4.0546875 42.44140625 C3.5390625 43.10140625 3.0234375 43.76140625 2.4921875 44.44140625 C0.0546875 46.44140625 0.0546875 46.44140625 -3.5078125 46.81640625 C-6.9453125 46.44140625 -6.9453125 46.44140625 -9.9453125 44.44140625 C-9.47089335 42.00153636 -9.00364889 39.62702205 -8.2578125 37.25390625 C-8.1546875 36.65578125 -8.0515625 36.05765625 -7.9453125 35.44140625 C-8.6053125 34.78140625 -9.2653125 34.12140625 -9.9453125 33.44140625 C-10.4235505 32.164262 -10.85692629 30.86990127 -11.2578125 29.56640625 C-12.66607566 25.55827264 -14.56492625 24.0211747 -17.9453125 21.44140625 C-19.0703125 19.06640625 -19.0703125 19.06640625 -18.9453125 16.44140625 C-15.24184032 11.04491821 -15.24184032 11.04491821 -11.96484375 9.51953125 C-9.4715435 8.18848508 -8.42214973 6.68940969 -6.8203125 4.37890625 C-3.13535945 -0.90031406 -3.13535945 -0.90031406 0 0 Z " fill="#78787B" transform="translate(219.9453125,163.55859375)"/>
<path d="M0 0 C1.8125 0.875 1.8125 0.875 3.8125 2.875 C3.67507926 7.82214658 1.08071475 10.44736014 -2.1875 13.875 C-2.8475 13.875 -3.5075 13.875 -4.1875 13.875 C-4.1875 14.535 -4.1875 15.195 -4.1875 15.875 C-4.8475 15.875 -5.5075 15.875 -6.1875 15.875 C-6.55222412 16.72976929 -6.55222412 16.72976929 -6.92431641 17.60180664 C-8.4219393 20.29689106 -10.19415024 22.09064007 -12.3984375 24.24609375 C-13.64753906 25.47875977 -13.64753906 25.47875977 -14.921875 26.73632812 C-15.79328125 27.58646484 -16.6646875 28.43660156 -17.5625 29.3125 C-19.28096255 30.99633681 -20.99718387 32.68246459 -22.7109375 34.37109375 C-23.47325684 35.11544678 -24.23557617 35.8597998 -25.02099609 36.62670898 C-27.24396081 38.93359225 -29.20659851 41.35945803 -31.1875 43.875 C-32.83375483 45.56183153 -34.50436784 47.22496313 -36.1875 48.875 C-37.53300834 50.24045708 -38.87658144 51.60782246 -40.21875 52.9765625 C-41.70822042 54.48448654 -43.19780648 55.99229637 -44.6875 57.5 C-45.43386719 58.263125 -46.18023437 59.02625 -46.94921875 59.8125 C-47.67753906 60.54726563 -48.40585938 61.28203125 -49.15625 62.0390625 C-49.81044922 62.70373535 -50.46464844 63.3684082 -51.13867188 64.05322266 C-54.39326212 66.94713977 -57.00142745 68.75871838 -61.375 69.1875 C-64.1875 68.875 -64.1875 68.875 -66.1875 66.875 C-66.1875 59.83240085 -63.93140582 55.94859812 -59.1875 50.875 C-49.01558023 40.875 -49.01558023 40.875 -46.1875 40.875 C-46.1875 40.215 -46.1875 39.555 -46.1875 38.875 C-44.67598454 37.52402626 -43.09936687 36.24572655 -41.5 35 C-36.40276174 30.92746427 -31.59560005 26.64118643 -26.82885742 22.18920898 C-23.86746314 19.42479733 -20.88360162 16.70590468 -17.8125 14.0625 C-15.26562328 11.86414325 -12.86133145 9.58422614 -10.5 7.1875 C-3.18065304 -0.1817516 -3.18065304 -0.1817516 0 0 Z M-55.1875 55.875 C-55.1875 56.535 -55.1875 57.195 -55.1875 57.875 C-55.8475 57.875 -56.5075 57.875 -57.1875 57.875 C-56.8575 58.535 -56.5275 59.195 -56.1875 59.875 C-55.1975 59.215 -54.2075 58.555 -53.1875 57.875 C-53.1875 57.215 -53.1875 56.555 -53.1875 55.875 C-53.8475 55.875 -54.5075 55.875 -55.1875 55.875 Z " fill="#7C7C7F" transform="translate(203.1875,287.125)"/>
<path d="M0 0 C5.1715783 0.99453429 9.51776557 0.81398098 14.6875 0.19140625 C17.29431248 -0.02436032 19.49456956 0.24837087 22 1 C21.67 1.99 21.34 2.98 21 4 C20.34 4 19.68 4 19 4 C19 7.63 19 11.26 19 15 C23.29 15 27.58 15 32 15 C32 11.37 32 7.74 32 4 C31.01 3.67 30.02 3.34 29 3 C30 1.5 30 1.5 32 0 C35.91147543 -0.48893443 39.26274081 -0.24575306 43 1 C42.67 1.99 42.34 2.98 42 4 C41.34 4 40.68 4 40 4 C40 12.91 40 21.82 40 31 C40.99 31.33 41.98 31.66 43 32 C43 32.66 43 33.32 43 34 C38.71 34 34.42 34 30 34 C30 33.01 30 32.02 30 31 C30.66 31 31.32 31 32 31 C31.505 25.06 31.505 25.06 31 19 C27.19140625 19.04882812 27.19140625 19.04882812 23.3828125 19.09765625 C21 19 21 19 19 18 C19 22.29 19 26.58 19 31 C19.99 31.33 20.98 31.66 22 32 C22 32.66 22 33.32 22 34 C17.71 34 13.42 34 9 34 C9.33 33.01 9.66 32.02 10 31 C10.66 31 11.32 31 12 31 C12 22.09 12 13.18 12 4 C11.01 4 10.02 4 9 4 C8.34 6.97 7.68 9.94 7 13 C4 12 4 12 2.375 9 C1.92125 8.01 1.4675 7.02 1 6 C-0.16475062 4.62228238 -0.16475062 4.62228238 -3.375 4.6875 C-6.91894161 4.6333512 -6.91894161 4.6333512 -8.703125 6.48828125 C-10.56391667 10.09216391 -10.43548564 13.54155061 -10.375 17.5 C-10.38660156 18.25925781 -10.39820313 19.01851563 -10.41015625 19.80078125 C-10.39281505 23.10138949 -10.23278821 25.56564299 -8.66015625 28.5 C-6.9991276 30.27036907 -6.9991276 30.27036907 -4.0625 30.5 C-0.31205423 29.88768232 0.72901495 29.00094453 3 26 C3.69313908 24.34416775 4.36474424 22.67889021 5 21 C5.66 20.67 6.32 20.34 7 20 C8.26237731 22.52475462 8.09856404 24.31200466 8.0625 27.125 C8.05347656 28.03507812 8.04445313 28.94515625 8.03515625 29.8828125 C8.02355469 30.58148438 8.01195312 31.28015625 8 32 C2.30498684 34.19038968 -3.61445496 35.62986885 -9.6875 34.5 C-13.63160283 31.94166303 -16.89319945 28.2136011 -19 24 C-19.49524244 18.12204059 -19.88372114 12.79900376 -17.25 7.4375 C-16.5075 6.633125 -15.765 5.82875 -15 5 C-14.360625 4.2575 -13.72125 3.515 -13.0625 2.75 C-8.63242241 -1.00885371 -5.56308357 -1.22387839 0 0 Z " fill="#7C797C" transform="translate(342,446)"/>
<path d="M0 0 C3 2.5625 3 2.5625 5 5 C3.7934375 5.8971875 3.7934375 5.8971875 2.5625 6.8125 C-0.20359392 9.50924895 -0.33994573 11.64782797 -0.5 15.4375 C-0.76597169 21.083699 -1.8820501 23.16934893 -6 27 C-8.3125 28.875 -8.3125 28.875 -10 30 C-6.4912812 33.09592835 -3.50802601 34.74194623 1 36 C1 36.99 1 37.98 1 39 C-3.75 40.125 -3.75 40.125 -6 39 C-6.33 39.99 -6.66 40.98 -7 42 C-11.29 41.67 -15.58 41.34 -20 41 C-20.33 39.68 -20.66 38.36 -21 37 C-20.01 36.505 -20.01 36.505 -19 36 C-19.66 35.01 -20.32 34.02 -21 33 C-27.93139267 33.16222408 -32.86512744 34.54923938 -38.87109375 38.0390625 C-41 39 -41 39 -44 38 C-44 35.875 -44 35.875 -43 33 C-41.08919987 31.36904245 -39.07232695 29.98317688 -37.00390625 28.55859375 C-35.03974804 27.03091514 -33.92387834 25.72394789 -32.625 23.625 C-31.820625 22.325625 -31.820625 22.325625 -31 21 C-30.34 21 -29.68 21 -29 21 C-29 20.34 -29 19.68 -29 19 C-28.34 19 -27.68 19 -27 19 C-26.7525 18.4225 -26.505 17.845 -26.25 17.25 C-24.38275992 13.88896786 -21.65463085 11.61612316 -18.875 9 C-17.06762142 7.07212952 -16.03425316 5.41325738 -15 3 C-14.34 3 -13.68 3 -13 3 C-13 2.34 -13 1.68 -13 1 C-8.58858196 -1.34356583 -4.70328757 -1.51718954 0 0 Z M-16 31 C-15.73323796 32.98491642 -15.73323796 32.98491642 -15 35 C-14.01 35.33 -13.02 35.66 -12 36 C-13.3089572 32.87802522 -13.3089572 32.87802522 -16 31 Z " fill="#7A797D" transform="translate(242,323)"/>
<path d="M0 0 C3.72901814 -0.08736736 7.45777165 -0.14051482 11.1875 -0.1875 C12.24259766 -0.21263672 13.29769531 -0.23777344 14.38476562 -0.26367188 C15.91713867 -0.27817383 15.91713867 -0.27817383 17.48046875 -0.29296875 C18.41785889 -0.3086792 19.35524902 -0.32438965 20.32104492 -0.34057617 C24.18270966 0.15035815 26.96441825 1.68198686 29.375 4.75 C30.44271634 8.59377882 29.77293549 12.45412901 28 16 C27.34 16 26.68 16 26 16 C26.44828218 18.61497941 26.96776444 20.92344056 28 23.375 C29 26 29 26 29.375 29.6875 C29.61676687 33.09049194 29.61676687 33.09049194 32.0625 34.4375 C33.0215625 34.7159375 33.0215625 34.7159375 34 35 C34 35.99 34 36.98 34 38 C30.90826248 39.54586876 28.40570448 39.29359521 25 39 C20.02448701 35.26836526 19.97890575 30.72556801 19.1015625 24.8984375 C18.73804688 23.94195312 18.37453125 22.98546875 18 22 C16.02 21.34 14.04 20.68 12 20 C12 24.95 12 29.9 12 35 C12.99 35 13.98 35 15 35 C14.67 36.32 14.34 37.64 14 39 C9.71 39 5.42 39 1 39 C0.67 37.68 0.34 36.36 0 35 C0.99 35 1.98 35 3 35 C3 24.44 3 13.88 3 3 C2.01 3 1.02 3 0 3 C0 2.01 0 1.02 0 0 Z M12 3 C12 7.29 12 11.58 12 16 C17.76887492 16.5547002 17.76887492 16.5547002 21 14 C21.52036216 9.93123546 21.52036216 9.93123546 21 6 C17.80434964 3.15942191 16.3252957 3 12 3 Z " fill="#79767D" transform="translate(136,248)"/>
<path d="M0 0 C3.06273831 -0.05410136 6.12451452 -0.09372225 9.1875 -0.125 C10.48397461 -0.15013672 10.48397461 -0.15013672 11.80664062 -0.17578125 C20.53517185 -0.24266655 20.53517185 -0.24266655 24 2 C25.96624796 4.21707703 27.60911749 6.59871983 29.25 9.0625 C30.12980115 10.34533144 31.00998943 11.62789748 31.890625 12.91015625 C32.58671875 13.92980469 33.2828125 14.94945312 34 16 C34.33 16.33 34.66 16.66 35 17 C35.33 15.35 35.66 13.7 36 12 C37.32 12.33 38.64 12.66 40 13 C40 19.6 40 26.2 40 33 C38.68 33 37.36 33 36 33 C33.921875 30.76171875 33.921875 30.76171875 31.75 27.6875 C31.36593994 27.1522168 30.98187988 26.61693359 30.58618164 26.06542969 C29.78476348 24.94695796 28.98869498 23.82463557 28.19775391 22.69873047 C26.31184099 20.0240093 24.37078074 17.39066233 22.4375 14.75 C21.303125 13.1825 20.16875 11.615 19 10 C19 16.93 19 23.86 19 31 C19.99 31 20.98 31 22 31 C22 31.99 22 32.98 22 34 C14.41 34 6.82 34 -1 34 C-0.67 33.01 -0.34 32.02 0 31 C0.66 31 1.32 31 2 31 C2 22.09 2 13.18 2 4 C1.01 3.67 0.02 3.34 -1 3 C-0.67 2.01 -0.34 1.02 0 0 Z M9 4 C9 12.91 9 21.82 9 31 C10.65 30.67 12.3 30.34 14 30 C14 21.42 14 12.84 14 4 C12.35 4 10.7 4 9 4 Z " fill="#827E84" transform="translate(280,446)"/>
<path d="M0 0 C1.25169228 -0.00074776 1.25169228 -0.00074776 2.52867126 -0.00151062 C4.29135522 0.00082865 6.05404259 0.01054855 7.81665039 0.02709961 C10.52064729 0.05072275 13.22366032 0.04765592 15.92773438 0.04101562 C17.63932882 0.04659137 19.3509191 0.0537006 21.0625 0.0625 C21.87396988 0.06158859 22.68543976 0.06067719 23.52149963 0.05973816 C29.23380812 0.13224562 29.23380812 0.13224562 31.46484375 2.36328125 C31.66015625 4.52734375 31.66015625 4.52734375 31.58984375 6.98828125 C31.57179687 7.80554688 31.55375 8.6228125 31.53515625 9.46484375 C31.51195312 10.09132813 31.48875 10.7178125 31.46484375 11.36328125 C30.14484375 11.36328125 28.82484375 11.36328125 27.46484375 11.36328125 C26.80484375 9.38328125 26.14484375 7.40328125 25.46484375 5.36328125 C22.98984375 4.86828125 22.98984375 4.86828125 20.46484375 4.36328125 C20.46484375 13.27328125 20.46484375 22.18328125 20.46484375 31.36328125 C21.12484375 31.36328125 21.78484375 31.36328125 22.46484375 31.36328125 C22.46484375 32.35328125 22.46484375 33.34328125 22.46484375 34.36328125 C18.17484375 34.36328125 13.88484375 34.36328125 9.46484375 34.36328125 C9.46484375 33.37328125 9.46484375 32.38328125 9.46484375 31.36328125 C10.45484375 31.36328125 11.44484375 31.36328125 12.46484375 31.36328125 C12.46484375 22.45328125 12.46484375 13.54328125 12.46484375 4.36328125 C10.48484375 4.69328125 8.50484375 5.02328125 6.46484375 5.36328125 C5.80484375 7.67328125 5.14484375 9.98328125 4.46484375 12.36328125 C3.47484375 12.36328125 2.48484375 12.36328125 1.46484375 12.36328125 C1.46484375 9.72328125 1.46484375 7.08328125 1.46484375 4.36328125 C0.80484375 4.36328125 0.14484375 4.36328125 -0.53515625 4.36328125 C-0.53515625 13.27328125 -0.53515625 22.18328125 -0.53515625 31.36328125 C0.45484375 31.36328125 1.44484375 31.36328125 2.46484375 31.36328125 C2.46484375 32.35328125 2.46484375 33.34328125 2.46484375 34.36328125 C-1.82515625 34.36328125 -6.11515625 34.36328125 -10.53515625 34.36328125 C-10.53515625 33.37328125 -10.53515625 32.38328125 -10.53515625 31.36328125 C-9.54515625 31.36328125 -8.55515625 31.36328125 -7.53515625 31.36328125 C-7.53515625 22.45328125 -7.53515625 13.54328125 -7.53515625 4.36328125 C-8.85515625 4.03328125 -10.17515625 3.70328125 -11.53515625 3.36328125 C-8.22947431 -0.50278191 -4.79781804 -0.05458883 0 0 Z " fill="#858388" transform="translate(176.53515625,445.63671875)"/>
<path d="M0 0 C-0.33 1.65 -0.66 3.3 -1 5 C-1.66 5 -2.32 5 -3 5 C-3.31517578 5.80195801 -3.31517578 5.80195801 -3.63671875 6.62011719 C-5.52961015 9.9245415 -8.13065526 12.41594503 -10.8125 15.078125 C-11.38202393 15.64956238 -11.95154785 16.22099976 -12.53833008 16.80975342 C-13.7395668 18.01234789 -14.94331997 19.21243334 -16.14941406 20.41015625 C-18.00040955 22.25040717 -19.84045446 24.10112633 -21.6796875 25.953125 C-22.84831724 27.12043384 -24.01756684 28.28712251 -25.1875 29.453125 C-25.73962158 30.00929504 -26.29174316 30.56546509 -26.8605957 31.13848877 C-30.77006365 35 -30.77006365 35 -33 35 C-33.268125 35.598125 -33.53625 36.19625 -33.8125 36.8125 C-34.99917406 38.99847854 -36.09599113 40.41332594 -38 42 C-38.66 42 -39.32 42 -40 42 C-40 42.66 -40 43.32 -40 44 C-40.66 44 -41.32 44 -42 44 C-42.268125 44.639375 -42.53625 45.27875 -42.8125 45.9375 C-44 48 -44 48 -47 49 C-47.28875 49.5775 -47.5775 50.155 -47.875 50.75 C-49.39612622 53.79225245 -51.48713896 55.73842507 -54 58 C-54.66 58 -55.32 58 -56 58 C-56.25652344 58.59554687 -56.51304687 59.19109375 -56.77734375 59.8046875 C-58.10969687 62.19696371 -59.43368605 63.42728199 -61.5625 65.125 C-64.21025666 67.20903634 -64.21025666 67.20903634 -66 70 C-66.66 70 -67.32 70 -68 70 C-68 70.66 -68 71.32 -68 72 C-70.3125 72.6875 -70.3125 72.6875 -73 73 C-74.8125 71.5625 -74.8125 71.5625 -76 70 C-74.86211688 65.30623211 -72.24765813 63.25185757 -68.69140625 60.3046875 C-64.40397517 56.6333024 -60.35413758 52.70504111 -56.28051758 48.79907227 C-55.34502075 47.91433228 -55.34502075 47.91433228 -54.390625 47.01171875 C-53.83407227 46.48022217 -53.27751953 45.94872559 -52.70410156 45.40112305 C-51 44 -51 44 -48.85009766 42.9296875 C-46.42817836 41.71265547 -46.14959313 40.41058095 -45 38 C-43.1796875 36.16796875 -43.1796875 36.16796875 -40.875 34.1875 C-37.46940804 31.21135218 -34.12875904 28.19571297 -30.8515625 25.078125 C-30.13371582 24.39596924 -29.41586914 23.71381348 -28.67626953 23.01098633 C-27.23383764 21.63667916 -25.79466283 20.25894473 -24.35888672 18.87768555 C-23.36139404 17.93082886 -23.36139404 17.93082886 -22.34375 16.96484375 C-21.74755859 16.3937085 -21.15136719 15.82257324 -20.53710938 15.23413086 C-19 14 -19 14 -17 14 C-17 13.34 -17 12.68 -17 12 C-15.390625 10.34375 -15.390625 10.34375 -13.25 8.5 C-12.20585937 7.58734375 -12.20585937 7.58734375 -11.140625 6.65625 C-9.15539208 5.12023037 -7.28127955 4.0276034 -5 3 C-5 2.34 -5 1.68 -5 1 C-3 0 -3 0 0 0 Z " fill="#838084" transform="translate(315,183)"/>
<path d="M0 0 C2 2.1875 2 2.1875 3 5 C2.67857143 11.32142857 2.67857143 11.32142857 0 14 C0.474375 14.515625 0.94875 15.03125 1.4375 15.5625 C3.50237912 18.78371143 3.8662942 21.18938472 4 25 C2.7783907 27.89328518 1.86176151 29.46620851 -0.81542969 31.12451172 C-3.30096128 32.12061323 -5.09519839 32.22954874 -7.765625 32.1953125 C-8.65507812 32.18886719 -9.54453125 32.18242187 -10.4609375 32.17578125 C-11.38132813 32.15902344 -12.30171875 32.14226562 -13.25 32.125 C-14.18585938 32.11597656 -15.12171875 32.10695313 -16.0859375 32.09765625 C-18.39088657 32.07413636 -20.6953116 32.04126853 -23 32 C-22.67 31.01 -22.34 30.02 -22 29 C-21.34 29 -20.68 29 -20 29 C-20.00523682 28.2886792 -20.01047363 27.5773584 -20.01586914 26.84448242 C-20.03664018 23.62549725 -20.04966058 20.40652617 -20.0625 17.1875 C-20.07087891 16.06794922 -20.07925781 14.94839844 -20.08789062 13.79492188 C-20.09111328 12.72177734 -20.09433594 11.64863281 -20.09765625 10.54296875 C-20.10289307 9.55321045 -20.10812988 8.56345215 -20.11352539 7.54370117 C-20 5 -20 5 -19 2 C-19.99 2 -20.98 2 -22 2 C-22 1.01 -22 0.02 -22 -1 C-15.228923 -3.25702567 -6.53485042 -2.91982678 0 0 Z M-12 2 C-12 5.63 -12 9.26 -12 13 C-7.39467611 12.30697031 -7.39467611 12.30697031 -5 11 C-4.74984127 7.58357241 -4.74984127 7.58357241 -5 4 C-7.95377498 1.63019987 -7.95377498 1.63019987 -12 2 Z M-12 16 C-12 20.29 -12 24.58 -12 29 C-7.37137144 28.36576583 -7.37137144 28.36576583 -5.125 26.875 C-3.68155085 24.85476062 -3.68155085 24.85476062 -4.125 21.4375 C-4.65633933 17.74557606 -4.65633933 17.74557606 -8 16 C-9.32 16 -10.64 16 -12 16 Z " fill="#9C9A9F" transform="translate(162,448)"/>
<path d="M0 0 C9.9 0 19.8 0 30 0 C30.33 3.3 30.66 6.6 31 10 C30.01 10.66 29.02 11.32 28 12 C27.5875 10.88625 27.175 9.7725 26.75 8.625 C25.14817848 5.7099204 24.30007321 5.09297481 21.0625 4.08984375 C18.05773937 3.61149153 15.02814369 3.29623145 12 3 C12 7.29 12 11.58 12 16 C13.98 15.67 15.96 15.34 18 15 C19.43637698 13.04836882 19.43637698 13.04836882 20 11 C20.99 11 21.98 11 23 11 C23 15.95 23 20.9 23 26 C21.68 25.67 20.36 25.34 19 25 C18.67 24.01 18.34 23.02 18 22 C16.02 21.67 14.04 21.34 12 21 C12 25.62 12 30.24 12 35 C13.32 35 14.64 35 16 35 C15.67 36.32 15.34 37.64 15 39 C13.06257659 39.02703381 11.12504521 39.04641125 9.1875 39.0625 C8.10855469 39.07410156 7.02960938 39.08570313 5.91796875 39.09765625 C3 39 3 39 0 38 C0 37.01 0 36.02 0 35 C1.32 35 2.64 35 4 35 C4 24.44 4 13.88 4 3 C2.68 3 1.36 3 0 3 C0 2.01 0 1.02 0 0 Z " fill="#908C91" transform="translate(285,248)"/>
<path d="M0 0 C2.5625 2.75 2.5625 2.75 4 6 C3.3061256 9.60814688 2.59713506 11.40286494 0 14 C0.66 14.474375 1.32 14.94875 2 15.4375 C4.53448743 18.68481202 4.70795926 20.76172304 4.5078125 24.8046875 C3.82370181 27.76215065 2.34038919 29.48161341 -0.14453125 31.19921875 C-4.42117779 33.04492936 -8.64901672 32.45032776 -13 31 C-13 29.35 -13 27.7 -13 26 C-12.67 26.99 -12.34 27.98 -12 29 C-8.47307328 27.86983745 -8.47307328 27.86983745 -5 26 C-3.6740144 23.62116511 -3.6740144 23.62116511 -4 21 C-5.00966359 18.65373496 -5.00966359 18.65373496 -7 17 C-9.59855733 16.1957792 -9.59855733 16.1957792 -12 16 C-12 18.97 -12 21.94 -12 25 C-12.33 25 -12.66 25 -13 25 C-13 23.02 -13 21.04 -13 19 C-13.66 19 -14.32 19 -15 19 C-15 20.98 -15 22.96 -15 25 C-15.66 25 -16.32 25 -17 25 C-17.33 22.69 -17.66 20.38 -18 18 C-18.33 20.97 -18.66 23.94 -19 27 C-19.33 27 -19.66 27 -20 27 C-20.02505615 26.25838623 -20.0501123 25.51677246 -20.07592773 24.75268555 C-20.19186132 21.39744672 -20.31459985 18.04249056 -20.4375 14.6875 C-20.47681641 13.52025391 -20.51613281 12.35300781 -20.55664062 11.15039062 C-20.59853516 10.03212891 -20.64042969 8.91386719 -20.68359375 7.76171875 C-20.72025146 6.73006592 -20.75690918 5.69841309 -20.79467773 4.63549805 C-20.90161242 1.89251742 -20.90161242 1.89251742 -22 -1 C-15.26284965 -3.24571678 -6.48199068 -2.97091239 0 0 Z M-12 2 C-12 5.63 -12 9.26 -12 13 C-7.33590644 13.45668855 -7.33590644 13.45668855 -5.1875 11.8125 C-3.55947998 9.32762734 -3.49024501 7.91288568 -4 5 C-5.67316312 3.07845307 -5.67316312 3.07845307 -8 2 C-9.32 2 -10.64 2 -12 2 Z " fill="#8B878D" transform="translate(135,448)"/>
<path d="M0 0 C2.56687367 3.8503105 1.83288724 5.58569763 1 10 C0.34 10 -0.32 10 -1 10 C-0.01 11.65 0.98 13.3 2 15 C2.556875 14.484375 3.11375 13.96875 3.6875 13.4375 C6 12 6 12 8.75 12.3125 C9.4925 12.539375 10.235 12.76625 11 13 C11.6875 14.8125 11.6875 14.8125 12 17 C10.75 18.75 10.75 18.75 9 20 C8.01 20 7.02 20 6 20 C8.89234315 20.82638376 10.88742431 21 14 21 C11.125 26.875 11.125 26.875 10 28 C6.52743085 28.30867281 4.6127712 28.38701339 1.625 26.5 C1.08875 26.005 0.5525 25.51 0 25 C-0.515625 25.495 -1.03125 25.99 -1.5625 26.5 C-4.9238388 28.56851618 -7.11959911 28.48505011 -11 28 C-13.43776333 26.20375334 -14.62754169 24.76974718 -15.9375 22.0625 C-16.03011746 19.0061239 -14.75510194 17.44460627 -13 15 C-12.4225 14.566875 -11.845 14.13375 -11.25 13.6875 C-9.5559178 11.81380027 -9.5559178 11.81380027 -10.5625 8.0625 C-10.68367187 7.36125 -10.80484375 6.66 -10.9296875 5.9375 C-11 4 -11 4 -9.1875 1.5625 C-5.6489487 -0.96503664 -4.20219451 -1.26065835 0 0 Z M-4 3 C-4.33 3.99 -4.66 4.98 -5 6 C-4.34 6.66 -3.68 7.32 -3 8 C-2.67 6.35 -2.34 4.7 -2 3 C-2.66 3 -3.32 3 -4 3 Z M-7 15 C-8.29633621 16.06645115 -8.29633621 16.06645115 -8.0625 18.5625 C-8.041875 19.366875 -8.02125 20.17125 -8 21 C-6.11683841 22.10836423 -6.11683841 22.10836423 -4 23 C-3.34 22.67 -2.68 22.34 -2 22 C-3.29299694 19.11562221 -4.65941363 17.12780579 -7 15 Z " fill="#817C80" transform="translate(226,254)"/>
<path d="M0 0 C0.92876953 -0.00128906 1.85753906 -0.00257813 2.81445312 -0.00390625 C4.26561523 0.00189453 4.26561523 0.00189453 5.74609375 0.0078125 C7.20305664 0.00201172 7.20305664 0.00201172 8.68945312 -0.00390625 C9.61693359 -0.00261719 10.54441406 -0.00132812 11.5 0 C12.35021729 0.00112793 13.20043457 0.00225586 14.07641602 0.00341797 C16.18359375 0.1328125 16.18359375 0.1328125 18.18359375 1.1328125 C18.59765625 3.19921875 18.59765625 3.19921875 18.80859375 5.6953125 C18.88335937 6.52160156 18.958125 7.34789062 19.03515625 8.19921875 C19.08414062 8.83730469 19.133125 9.47539062 19.18359375 10.1328125 C17.86359375 10.1328125 16.54359375 10.1328125 15.18359375 10.1328125 C14.95929688 9.49859375 14.735 8.864375 14.50390625 8.2109375 C13.34573618 5.91265093 13.34573618 5.91265093 10.80078125 5.3046875 C9.89585937 5.16546875 8.9909375 5.02625 8.05859375 4.8828125 C6.44984375 4.6353125 4.84109375 4.3878125 3.18359375 4.1328125 C3.18359375 7.7628125 3.18359375 11.3928125 3.18359375 15.1328125 C4.83359375 15.1328125 6.48359375 15.1328125 8.18359375 15.1328125 C8.51359375 13.4828125 8.84359375 11.8328125 9.18359375 10.1328125 C10.17359375 10.4628125 11.16359375 10.7928125 12.18359375 11.1328125 C12.18359375 15.0928125 12.18359375 19.0528125 12.18359375 23.1328125 C10.86359375 23.1328125 9.54359375 23.1328125 8.18359375 23.1328125 C7.85359375 22.1428125 7.52359375 21.1528125 7.18359375 20.1328125 C5.86359375 19.8028125 4.54359375 19.4728125 3.18359375 19.1328125 C3.18359375 23.0928125 3.18359375 27.0528125 3.18359375 31.1328125 C4.17359375 31.4628125 5.16359375 31.7928125 6.18359375 32.1328125 C6.18359375 32.7928125 6.18359375 33.4528125 6.18359375 34.1328125 C1.56359375 34.1328125 -3.05640625 34.1328125 -7.81640625 34.1328125 C-7.81640625 33.1428125 -7.81640625 32.1528125 -7.81640625 31.1328125 C-6.82640625 30.8028125 -5.83640625 30.4728125 -4.81640625 30.1328125 C-4.82164307 29.48731445 -4.82687988 28.84181641 -4.83227539 28.17675781 C-4.85309282 25.24545265 -4.86608159 22.31416307 -4.87890625 19.3828125 C-4.88728516 18.36703125 -4.89566406 17.35125 -4.90429688 16.3046875 C-4.90751953 15.325 -4.91074219 14.3453125 -4.9140625 13.3359375 C-4.91929932 12.43520508 -4.92453613 11.53447266 -4.92993164 10.60644531 C-4.82402937 8.29891446 -4.46773438 6.34146845 -3.81640625 4.1328125 C-5.13640625 3.8028125 -6.45640625 3.4728125 -7.81640625 3.1328125 C-7.81640625 2.4728125 -7.81640625 1.8128125 -7.81640625 1.1328125 C-4.90766621 0.16323249 -3.02650834 0.00400976 0 0 Z " fill="#7A777B" transform="translate(259.81640625,445.8671875)"/>
<path d="M0 0 C1.485 0.495 1.485 0.495 3 1 C2.67 1.99 2.34 2.98 2 4 C1.34 4 0.68 4 0 4 C0 12.91 0 21.82 0 31 C0.99 31.33 1.98 31.66 3 32 C3 32.66 3 33.32 3 34 C-1.29 34 -5.58 34 -10 34 C-10 33.01 -10 32.02 -10 31 C-9.34 31 -8.68 31 -8 31 C-8.33 27.04 -8.66 23.08 -9 19 C-12.80859375 19.04882812 -12.80859375 19.04882812 -16.6171875 19.09765625 C-19 19 -19 19 -21 18 C-21 22.29 -21 26.58 -21 31 C-20.01 31.33 -19.02 31.66 -18 32 C-18 32.66 -18 33.32 -18 34 C-22.29 34 -26.58 34 -31 34 C-30.67 33.01 -30.34 32.02 -30 31 C-29.34 31 -28.68 31 -28 31 C-28 22.09 -28 13.18 -28 4 C-27.67 4 -27.34 4 -27 4 C-26.67 13.24 -26.34 22.48 -26 32 C-25.01 32 -24.02 32 -23 32 C-22.90912109 30.28490234 -22.90912109 30.28490234 -22.81640625 28.53515625 C-22.73201572 27.04425695 -22.64736698 25.55337225 -22.5625 24.0625 C-22.52318359 23.30775391 -22.48386719 22.55300781 -22.44335938 21.77539062 C-22.11328125 16.11328125 -22.11328125 16.11328125 -21 15 C-18.81360547 14.92741054 -16.62499611 14.91626217 -14.4375 14.9375 C-12.64119141 14.95103516 -12.64119141 14.95103516 -10.80859375 14.96484375 C-9.88175781 14.97644531 -8.95492188 14.98804688 -8 15 C-8 11.37 -8 7.74 -8 4 C-8.99 3.67 -9.98 3.34 -11 3 C-8.29910382 -1.05134427 -4.38745098 -0.4599747 0 0 Z " fill="#A7A0AB" transform="translate(382,446)"/>
<path d="M0 0 C2 2.0625 2 2.0625 3 5 C2.1875 8.8125 2.1875 8.8125 1 12 C1.66 12.66 2.32 13.32 3 14 C3.66 13.34 4.32 12.68 5 12 C8.125 11.875 8.125 11.875 11 12 C12 15 12 15 11 18 C8.9375 18.6875 8.9375 18.6875 7 19 C7.99 19 8.98 19 10 19 C10.99 19 11.98 19 13 19 C12.25 23.75 12.25 23.75 10 26 C6.625 26.125 6.625 26.125 3 26 C0.91483764 26 -1.17279055 26.01078069 -3.25390625 26.140625 C-9.41196668 26.43237744 -9.41196668 26.43237744 -12.125 24.4375 C-13.36785045 20.97527375 -12.83699362 18.54112686 -12 15 C-11.34 14.01 -10.68 13.02 -10 12 C-9.34 12 -8.68 12 -8 12 C-8.33 11.34 -8.66 10.68 -9 10 C-9.4524237 3.77917415 -9.4524237 3.77917415 -7.875 1.0625 C-5.04485189 -0.54125059 -3.18502524 -0.53083754 0 0 Z M-4 4 C-3.67 4.99 -3.34 5.98 -3 7 C-2.34 7 -1.68 7 -1 7 C-1 6.01 -1 5.02 -1 4 C-1.99 4 -2.98 4 -4 4 Z M-7 15 C-6.67 16.98 -6.34 18.96 -6 21 C-4.68 21 -3.36 21 -2 21 C-2.78130071 18.50447516 -2.78130071 18.50447516 -4 16 C-4.99 15.67 -5.98 15.34 -7 15 Z " fill="#827C82" transform="translate(229,454)"/>
<path d="M0 0 C0.33 0 0.66 0 1 0 C1 11.22 1 22.44 1 34 C2.65 34 4.3 34 6 34 C5.67 34.99 5.34 35.98 5 37 C3.06257659 37.02703381 1.12504521 37.04641125 -0.8125 37.0625 C-1.89144531 37.07410156 -2.97039062 37.08570313 -4.08203125 37.09765625 C-7 37 -7 37 -10 36 C-10 35.01 -10 34.02 -10 33 C-8.68 33 -7.36 33 -6 33 C-6 22.77 -6 12.54 -6 2 C-5.01 2.33 -4.02 2.66 -3 3 C-3 3.66 -3 4.32 -3 5 C-2.34 5 -1.68 5 -1 5 C-0.67 3.35 -0.34 1.7 0 0 Z " fill="#757478" transform="translate(295,250)"/>
<path d="M0 0 C1.03125 0.2475 2.0625 0.495 3.125 0.75 C4.07375 0.935625 5.0225 1.12125 6 1.3125 C6.70125 1.456875 7.4025 1.60125 8.125 1.75 C7.465 2.41 6.805 3.07 6.125 3.75 C5.75260773 6.56402683 5.75260773 6.56402683 5.7109375 9.8515625 C5.65292969 11.66914063 5.65292969 11.66914063 5.59375 13.5234375 C5.5628125 14.79445313 5.531875 16.06546875 5.5 17.375 C5.44199219 19.293125 5.44199219 19.293125 5.3828125 21.25 C5.28828951 24.41652017 5.20273643 27.5830304 5.125 30.75 C6.115 30.75 7.105 30.75 8.125 30.75 C8.125 31.74 8.125 32.73 8.125 33.75 C3.835 33.75 -0.455 33.75 -4.875 33.75 C-4.875 32.76 -4.875 31.77 -4.875 30.75 C-3.885 30.75 -2.895 30.75 -1.875 30.75 C-1.875 21.84 -1.875 12.93 -1.875 3.75 C-3.195 3.42 -4.515 3.09 -5.875 2.75 C-3.95916235 0.08911438 -3.3548535 -0.29172639 0 0 Z " fill="#777279" transform="translate(170.875,446.25)"/>
<path d="M0 0 C0.33 0 0.66 0 1 0 C1 4.29 1 8.58 1 13 C3.97 12.34 6.94 11.68 10 11 C10 8.69 10 6.38 10 4 C10.33 4 10.66 4 11 4 C11 5.65 11 7.3 11 9 C11.66 9 12.32 9 13 9 C13.33 9.66 13.66 10.32 14 11 C14.99 11 15.98 11 17 11 C17 11.66 17 12.32 17 13 C16.34 13 15.68 13 15 13 C15.44828218 15.61497941 15.96776444 17.92344056 17 20.375 C18 23 18 23 18.375 26.6875 C18.61676687 30.09049194 18.61676687 30.09049194 21.0625 31.4375 C21.701875 31.623125 22.34125 31.80875 23 32 C23 32.99 23 33.98 23 35 C19.90826248 36.54586876 17.40570448 36.29359521 14 36 C9.04589093 32.270808 8.89716097 27.70048198 7.90625 21.8984375 C7.29565975 18.88060016 7.29565975 18.88060016 4.90625 17.6015625 C4.2771875 17.40304687 3.648125 17.20453125 3 17 C3 16.34 3 15.68 3 15 C2.01 14.67 1.02 14.34 0 14 C0 9.38 0 4.76 0 0 Z " fill="#757275" transform="translate(147,251)"/>
<path d="M0 0 C4.12700479 2.44628429 5.12652902 5.18337281 6.6875 9.625 C7.83710994 13.60278076 7.83710994 13.60278076 10 17 C10.33 13.04 10.66 9.08 11 5 C13 7 13 7 13.125 10.625 C13.08375 11.73875 13.0425 12.8525 13 14 C13.66 14 14.32 14 15 14 C15 12.02 15 10.04 15 8 C15.66 8 16.32 8 17 8 C17.76173392 12.3164922 18.16063604 15.74433453 17 20 C17.99 20.33 18.98 20.66 20 21 C12.74 21 5.48 21 -2 21 C-1.67 20.01 -1.34 19.02 -1 18 C-0.34 18 0.32 18 1 18 C0.34 16.02 -0.32 14.04 -1 12 C-4.3 11.34 -7.6 10.68 -11 10 C-10.67 9.01 -10.34 8.02 -10 7 C-7.36 7.33 -4.72 7.66 -2 8 C-2.33 6.02 -2.66 4.04 -3 2 C-2.34 2 -1.68 2 -1 2 C-0.67 1.34 -0.34 0.68 0 0 Z " fill="#868386" transform="translate(105,459)"/>
<path d="M0 0 C0.33 0.66 0.66 1.32 1 2 C1.66 2 2.32 2 3 2 C3 10.91 3 19.82 3 29 C5.64 29 8.28 29 11 29 C13.5 29.5 13.5 29.5 15 30 C15 30.66 15 31.32 15 32 C7.74 32 0.48 32 -7 32 C-6.505 30.515 -6.505 30.515 -6 29 C-5.34 29 -4.68 29 -4 29 C-4 20.09 -4 11.18 -4 2 C-2.68 1.34 -1.36 0.68 0 0 Z " fill="#747277" transform="translate(286,448)"/>
<path d="M0 0 C0.02477373 4.05679377 0.04289493 8.11355806 0.05493164 12.17041016 C0.05995118 13.54964973 0.06676819 14.92888402 0.07543945 16.30810547 C0.0876092 18.29392183 0.09271633 20.27977749 0.09765625 22.265625 C0.10289307 23.45961914 0.10812988 24.65361328 0.11352539 25.88378906 C0 29 0 29 -1 33 C-3.97 33 -6.94 33 -10 33 C-9.67 32.01 -9.34 31.02 -9 30 C-8.34 30 -7.68 30 -7 30 C-7.00523682 29.2886792 -7.01047363 28.5773584 -7.01586914 27.84448242 C-7.03664018 24.62549725 -7.04966058 21.40652617 -7.0625 18.1875 C-7.07087891 17.06794922 -7.07925781 15.94839844 -7.08789062 14.79492188 C-7.09111328 13.72177734 -7.09433594 12.64863281 -7.09765625 11.54296875 C-7.10289307 10.55321045 -7.10812988 9.56345215 -7.11352539 8.54370117 C-7 6 -7 6 -6 3 C-6.99 3 -7.98 3 -9 3 C-9 2.01 -9 1.02 -9 0 C-5.52176885 -1.15941038 -3.54104422 -0.70820884 0 0 Z " fill="#7E7C80" transform="translate(149,447)"/>
<path d="M0 0 C0 0.66 0 1.32 0 2 C-0.66 2 -1.32 2 -2 2 C-2 2.66 -2 3.32 -2 4 C-3.32 4 -4.64 4 -6 4 C-5.979375 5.155 -5.95875 6.31 -5.9375 7.5 C-6.42320507 11.83279758 -8.25665975 13.56855978 -11.5 16.375 C-12.72203125 17.34566406 -12.72203125 17.34566406 -13.96875 18.3359375 C-16.0925694 19.8447365 -16.0925694 19.8447365 -17 22 C-17.66 22 -18.32 22 -19 22 C-19 22.66 -19 23.32 -19 24 C-21.3125 24.6875 -21.3125 24.6875 -24 25 C-25.8125 23.5625 -25.8125 23.5625 -27 22 C-25.83504511 17.19456107 -23.00897844 15.00242452 -19.36328125 11.9765625 C-15.8623139 9.04848071 -12.54707763 5.92115511 -9.19921875 2.8203125 C-5.99736097 0.17010695 -4.18028519 0 0 0 Z " fill="#7A797C" transform="translate(266,231)"/>
<path d="M0 0 C0.86343824 2.12124966 1.71550648 4.24713072 2.5625 6.375 C3.03816406 7.55835938 3.51382813 8.74171875 4.00390625 9.9609375 C5 13 5 13 4 15 C3.34 15 2.68 15 2 15 C0.63838689 15.96113866 -0.69855198 16.95884159 -2 18 C-2 17.01 -2 16.02 -2 15 C-2.66 15 -3.32 15 -4 15 C-4.33 16.65 -4.66 18.3 -5 20 C-3.35 19.67 -1.7 19.34 0 19 C0 19.66 0 20.32 0 21 C-2.64 21 -5.28 21 -8 21 C-8.33 21.66 -8.66 22.32 -9 23 C-7.68 23.33 -6.36 23.66 -5 24 C-5.99 24.33 -6.98 24.66 -8 25 C-8.33 26.98 -8.66 28.96 -9 31 C-8.01 31 -7.02 31 -6 31 C-6.495 32.485 -6.495 32.485 -7 34 C-7 33.34 -7 32.68 -7 32 C-9.31 32 -11.62 32 -14 32 C-13.70488525 31.27619141 -13.40977051 30.55238281 -13.10571289 29.80664062 C-11.3806609 25.4279262 -9.92634668 20.96347026 -8.4375 16.5 C-7.96280273 15.09427734 -7.96280273 15.09427734 -7.47851562 13.66015625 C-7.17494141 12.75136719 -6.87136719 11.84257812 -6.55859375 10.90625 C-6.28329834 10.08447266 -6.00800293 9.26269531 -5.72436523 8.41601562 C-4.93804069 5.96974922 -4.93804069 5.96974922 -4.52758789 3.25585938 C-4.35348389 2.51142578 -4.17937988 1.76699219 -4 1 C-2 0 -2 0 0 0 Z " fill="#8E8B8E" transform="translate(103,446)"/>
<path d="M0 0 C3.63 0.33 7.26 0.66 11 1 C10.67 1.99 10.34 2.98 10 4 C9.34 4 8.68 4 8 4 C8.01160156 4.680625 8.02320313 5.36125 8.03515625 6.0625 C8.1159987 14.74728887 7.61521207 23.34308733 7 32 C5.0625 32.5625 5.0625 32.5625 3 33 C1.18617043 31.18617043 1.78360915 28.36381407 1.71875 25.91796875 C1.68136719 24.67595703 1.64398438 23.43394531 1.60546875 22.15429688 C1.57066406 20.84525391 1.53585937 19.53621094 1.5 18.1875 C1.43108171 15.61837921 1.35832996 13.04935762 1.28125 10.48046875 C1.25095703 9.33473389 1.22066406 8.18899902 1.18945312 7.00854492 C1.0786665 3.80159061 1.0786665 3.80159061 0 0 Z " fill="#757177" transform="translate(353,446)"/>
<path d="M0 0 C1.54300781 -0.00386719 1.54300781 -0.00386719 3.1171875 -0.0078125 C5.899648 0.11504939 8.41739874 0.49555764 11.125 1.125 C10.135 1.785 9.145 2.445 8.125 3.125 C8.125 4.115 8.125 5.105 8.125 6.125 C5.815 5.465 3.505 4.805 1.125 4.125 C0.795 9.405 0.465 14.685 0.125 20.125 C-1.54166667 20.125 -3.20833333 20.125 -4.875 20.125 C-5.205 23.095 -5.535 26.065 -5.875 29.125 C-6.205 29.125 -6.535 29.125 -6.875 29.125 C-6.90005615 28.38338623 -6.9251123 27.64177246 -6.95092773 26.87768555 C-7.06686132 23.52244672 -7.18959985 20.16749056 -7.3125 16.8125 C-7.35181641 15.64525391 -7.39113281 14.47800781 -7.43164062 13.27539062 C-7.47353516 12.15712891 -7.51542969 11.03886719 -7.55859375 9.88671875 C-7.59525146 8.85506592 -7.63190918 7.82341309 -7.66967773 6.76049805 C-7.77661242 4.01751742 -7.77661242 4.01751742 -8.875 1.125 C-5.68374596 0.06124865 -3.35029029 -0.00835484 0 0 Z " fill="#908D92" transform="translate(121.875,445.875)"/>
<path d="M0 0 C0.33 0 0.66 0 1 0 C1.33 1.65 1.66 3.3 2 5 C2.99 5.33 3.98 5.66 5 6 C5.33 13.26 5.66 20.52 6 28 C6.99 28.33 7.98 28.66 9 29 C9 29.66 9 30.32 9 31 C7.72125 31.061875 6.4425 31.12375 5.125 31.1875 C4.04605469 31.23970703 4.04605469 31.23970703 2.9453125 31.29296875 C2.30335938 31.19628906 1.66140625 31.09960938 1 31 C-1.34963594 27.47554609 -1.24591382 26.00489606 -1.23046875 21.8359375 C-1.22756836 20.02996094 -1.22756836 20.02996094 -1.22460938 18.1875 C-1.21236328 16.929375 -1.20011719 15.67125 -1.1875 14.375 C-1.18685547 13.10914063 -1.18621094 11.84328125 -1.18554688 10.5390625 C-1.14016594 1.14016594 -1.14016594 1.14016594 0 0 Z " fill="#747275" transform="translate(376,449)"/>
<path d="M0 0 C1.175625 0.165 2.35125 0.33 3.5625 0.5 C6.40330899 0.91320858 9.19300001 1.40457576 12 2 C12 2.66 12 3.32 12 4 C11.01 4 10.02 4 9 4 C8.34 6.97 7.68 9.94 7 13 C4 12 4 12 2.375 9 C1.92125 8.01 1.4675 7.02 1 6 C-0.16475062 4.62228238 -0.16475062 4.62228238 -3.375 4.6875 C-6.94552785 4.61580296 -6.94552785 4.61580296 -8.68359375 6.59765625 C-10.39070088 9.71300011 -10.51075417 12.21508337 -10.6875 15.75 C-10.75324219 16.92046875 -10.81898438 18.0909375 -10.88671875 19.296875 C-10.92410156 20.18890625 -10.96148437 21.0809375 -11 22 C-11.33 22 -11.66 22 -12 22 C-12 16.72 -12 11.44 -12 6 C-12.99 5.67 -13.98 5.34 -15 5 C-10.27065101 -0.25483221 -6.89694625 -1.51732817 0 0 Z " fill="#B0ACAF" transform="translate(342,446)"/>
<path d="M0 0 C0.33 0.66 0.66 1.32 1 2 C0.0625 4.625 0.0625 4.625 -1 7 C-0.01 7.33 0.98 7.66 2 8 C2 8.99 2 9.98 2 11 C0.68 10.67 -0.64 10.34 -2 10 C-2 10.66 -2 11.32 -2 12 C-3.29233607 13.37310707 -4.62437146 14.71034824 -6 16 C-4.68 17.32 -3.36 18.64 -2 20 C-3.125 21.5 -3.125 21.5 -5 23 C-8.0625 23.3125 -8.0625 23.3125 -11 23 C-11.66 22.34 -12.32 21.68 -13 21 C-13 14.01687465 -10.69267498 10.05945878 -6 5 C-4.06552106 3.19652415 -2.10792241 1.60603612 0 0 Z " fill="#7E7C7F" transform="translate(150,333)"/>
<path d="M0 0 C2 2.1875 2 2.1875 3 5 C2.25 7.6875 2.25 7.6875 1 10 C0.67 10.66 0.34 11.32 0 12 C-0.66 12.144375 -1.32 12.28875 -2 12.4375 C-2.66 12.623125 -3.32 12.80875 -4 13 C-4.33 13.99 -4.66 14.98 -5 16 C-5.66 15.67 -6.32 15.34 -7 15 C-7.33 16.32 -7.66 17.64 -8 19 C-8.66 18.34 -9.32 17.68 -10 17 C-10.99 19.475 -10.99 19.475 -12 22 C-12.33 22 -12.66 22 -13 22 C-12.25 15.375 -12.25 15.375 -10 12 C-9.34 12 -8.68 12 -8 12 C-8.33 11.34 -8.66 10.68 -9 10 C-9.4524237 3.77917415 -9.4524237 3.77917415 -7.875 1.0625 C-5.04485189 -0.54125059 -3.18502524 -0.53083754 0 0 Z M-4 4 C-3.67 4.99 -3.34 5.98 -3 7 C-2.34 7 -1.68 7 -1 7 C-1 6.01 -1 5.02 -1 4 C-1.99 4 -2.98 4 -4 4 Z " fill="#868285" transform="translate(229,454)"/>
<path d="M0 0 C-0.33 1.65 -0.66 3.3 -1 5 C-1.66 5 -2.32 5 -3 5 C-3.24476074 5.57073242 -3.48952148 6.14146484 -3.74169922 6.72949219 C-5.2201947 9.39732454 -6.96126548 11.18716315 -9.1328125 13.328125 C-10.34130859 14.52695313 -10.34130859 14.52695313 -11.57421875 15.75 C-12.41597656 16.575 -13.25773437 17.4 -14.125 18.25 C-14.97449219 19.09046875 -15.82398438 19.9309375 -16.69921875 20.796875 C-18.79504923 22.86915683 -20.89540713 24.93662393 -23 27 C-23.66 25.68 -24.32 24.36 -25 23 C-24.01 22.34 -23.02 21.68 -22 21 C-20.66209359 20.00612666 -19.32781878 19.0073108 -18 18 C-18.99 17.34 -19.98 16.68 -21 16 C-19.68 15.34 -18.36 14.68 -17 14 C-17 13.34 -17 12.68 -17 12 C-15.390625 10.34375 -15.390625 10.34375 -13.25 8.5 C-12.55390625 7.8915625 -11.8578125 7.283125 -11.140625 6.65625 C-9.15539208 5.12023037 -7.28127955 4.0276034 -5 3 C-5 2.34 -5 1.68 -5 1 C-3 0 -3 0 0 0 Z " fill="#969497" transform="translate(315,183)"/>
<path d="M0 0 C7.26 0 14.52 0 22 0 C22 0.66 22 1.32 22 2 C20.35 2.66 18.7 3.32 17 4 C17.495 18.355 17.495 18.355 18 33 C18.66 33.33 19.32 33.66 20 34 C17.69 34 15.38 34 13 34 C13 33.01 13 32.02 13 31 C13.99 31 14.98 31 16 31 C16 22.09 16 13.18 16 4 C14.02 4.33 12.04 4.66 10 5 C9.34 7.31 8.68 9.62 8 12 C7.01 12 6.02 12 5 12 C4.97421875 11.37351562 4.9484375 10.74703125 4.921875 10.1015625 C4.86515625 9.28429687 4.8084375 8.46703125 4.75 7.625 C4.70359375 6.81289063 4.6571875 6.00078125 4.609375 5.1640625 C4.2077908 2.81161073 4.2077908 2.81161073 1.953125 1.7109375 C1.30859375 1.47632813 0.6640625 1.24171875 0 1 C0 0.67 0 0.34 0 0 Z " fill="#938E93" transform="translate(173,446)"/>
<path d="M0 0 C0.33 0 0.66 0 1 0 C1 1.65 1 3.3 1 5 C2.32 5.33 3.64 5.66 5 6 C5.33692785 7.60341555 5.66941093 9.20776555 6 10.8125 C6.185625 11.70582031 6.37125 12.59914063 6.5625 13.51953125 C7 16 7 16 7 19 C9.31 19 11.62 19 14 19 C14 19.66 14 20.32 14 21 C11.87561661 21.08078641 9.7503677 21.13909141 7.625 21.1875 C6.44164063 21.22230469 5.25828125 21.25710938 4.0390625 21.29296875 C2.53472656 21.14794922 2.53472656 21.14794922 1 21 C-1.23564082 17.64653876 -1.36114181 16.01548663 -1.625 12.0625 C-1.73714844 10.50208984 -1.73714844 10.50208984 -1.8515625 8.91015625 C-1.96892515 6.60923066 -2 4.30391679 -2 2 C-1.34 1.34 -0.68 0.68 0 0 Z " fill="#7C787E" transform="translate(82,459)"/>
<path d="M0 0 C1.78257471 3.23091667 2 5.32518002 2 9 C4.475 9.495 4.475 9.495 7 10 C3.6189962 14.13621084 0.33409466 17.81316569 -4 21 C-4.66 19.68 -5.32 18.36 -6 17 C-4.68 16.67 -3.36 16.34 -2 16 C-2 13.03 -2 10.06 -2 7 C-2.99 7.33 -3.98 7.66 -5 8 C-5.309375 8.66 -5.61875 9.32 -5.9375 10 C-7 12 -7 12 -9 12.875 C-9.99 12.936875 -9.99 12.936875 -11 13 C-11.66 12.34 -12.32 11.68 -13 11 C-12.34 11 -11.68 11 -11 11 C-11 10.34 -11 9.68 -11 9 C-9.21895282 7.39821407 -7.37462722 5.86618074 -5.5 4.375 C-4.4790625 3.55773437 -3.458125 2.74046875 -2.40625 1.8984375 C-1.6121875 1.27195312 -0.818125 0.64546875 0 0 Z " fill="#838385" transform="translate(168,317)"/>
<path d="M0 0 C1.32 0 2.64 0 4 0 C4.79706768 3.49992696 5.11863027 6.7142231 5.09765625 10.30078125 C5.09443359 11.27724609 5.09121094 12.25371094 5.08789062 13.25976562 C5.07951172 14.26716797 5.07113281 15.27457031 5.0625 16.3125 C5.05798828 17.33923828 5.05347656 18.36597656 5.04882812 19.42382812 C5.03708184 21.94927882 5.02065565 24.47460905 5 27 C5.99 27 6.98 27 8 27 C7.67 27.99 7.34 28.98 7 30 C7 29.34 7 28.68 7 28 C4.36 27.67 1.72 27.34 -1 27 C-0.67 18.09 -0.34 9.18 0 0 Z " fill="#A29DA4" transform="translate(294,450)"/>
<path d="M0 0 C0.33 0 0.66 0 1 0 C1 3.63 1 7.26 1 11 C2.65 11 4.3 11 6 11 C6.33 9.35 6.66 7.7 7 6 C7.99 6.33 8.98 6.66 10 7 C10 10.96 10 14.92 10 19 C8.68 19 7.36 19 6 19 C5.67 18.01 5.34 17.02 5 16 C3.68 15.67 2.36 15.34 1 15 C1 18.96 1 22.92 1 27 C1.99 27.33 2.98 27.66 4 28 C4 28.66 4 29.32 4 30 C2.68 30 1.36 30 0 30 C-0.73019395 19.88962219 -1.28736468 10.10086131 0 0 Z " fill="#918E94" transform="translate(262,450)"/>
<path d="M0 0 C0.99 0 1.98 0 3 0 C3 4.95 3 9.9 3 15 C1.68 14.67 0.36 14.34 -1 14 C-1.33 13.01 -1.66 12.02 -2 11 C-4.97 10.505 -4.97 10.505 -8 10 C-8 14.62 -8 19.24 -8 24 C-6.68 24.33 -5.36 24.66 -4 25 C-5.65 25 -7.3 25 -9 25 C-9 18.73 -9 12.46 -9 6 C-6.69 6 -4.38 6 -2 6 C-1.34 4.02 -0.68 2.04 0 0 Z " fill="#95919A" transform="translate(305,259)"/>
<path d="M0 0 C2 2 2 2 2.1953125 4.3828125 C2.17210937 5.28773438 2.14890625 6.19265625 2.125 7.125 C2.10695313 8.03507812 2.08890625 8.94515625 2.0703125 9.8828125 C2.04710937 10.58148438 2.02390625 11.28015625 2 12 C-3.8304574 14.24248361 -9.96901941 15.9278512 -16.0625 14.0625 C-16.701875 13.711875 -17.34125 13.36125 -18 13 C-17.01 12.67 -16.02 12.34 -15 12 C-15.33 10.68 -15.66 9.36 -16 8 C-15.01 8.66 -14.02 9.32 -13 10 C-9.392144 10.46057736 -7.69809177 10.52356882 -4.75 8.3125 C-2.95323833 5.93820779 -1.98247626 3.79627858 -1 1 C-0.67 0.67 -0.34 0.34 0 0 Z " fill="#9B969A" transform="translate(348,466)"/>
<path d="M0 0 C2 2 2 2 2.125 5.625 C2.08375 6.73875 2.0425 7.8525 2 9 C2.66 9 3.32 9 4 9 C4 7.02 4 5.04 4 3 C4.66 3 5.32 3 6 3 C6.76173392 7.3164922 7.16063604 10.74433453 6 15 C6.99 15.33 7.98 15.66 9 16 C3.06 16 -2.88 16 -9 16 C-8.67 14.02 -8.34 12.04 -8 10 C-7.01 10.33 -6.02 10.66 -5 11 C-5 11.33 -5 11.66 -5 12 C-4.34 12 -3.68 12 -3 12 C-3 12.66 -3 13.32 -3 14 C-2.01 14 -1.02 14 0 14 C0 9.38 0 4.76 0 0 Z " fill="#787379" transform="translate(116,464)"/>
<path d="M0 0 C3.875 3.75 3.875 3.75 5 6 C5.66 6 6.32 6 7 6 C7.268125 6.969375 7.53625 7.93875 7.8125 8.9375 C8.204375 9.948125 8.59625 10.95875 9 12 C9.99 12.33 10.98 12.66 12 13 C12 15.31 12 17.62 12 20 C11.34 19.01 10.68 18.02 10 17 C8.81664062 16.80857422 8.81664062 16.80857422 7.609375 16.61328125 C4.03791218 15.77388056 3.24436441 14.20110816 1.25 11.1875 C0.65703125 10.31480469 0.0640625 9.44210937 -0.546875 8.54296875 C-1.83719226 6.28491355 -2.55030307 4.53842082 -3 2 C-2.01 1.34 -1.02 0.68 0 0 Z " fill="#777278" transform="translate(307,458)"/>
<path d="M0 0 C2.56687367 3.8503105 1.83288724 5.58569763 1 10 C0.67 9.34 0.34 8.68 0 8 C-0.66 8 -1.32 8 -2 8 C-2 6.35 -2 4.7 -2 3 C-4.0624994 4.81222534 -4.0624994 4.81222534 -6 7 C-6 7.99 -6 8.98 -6 10 C-6.66 10 -7.32 10 -8 10 C-8 10.99 -8 11.98 -8 13 C-7.34 13 -6.68 13 -6 13 C-6.66 15.31 -7.32 17.62 -8 20 C-8.33 20 -8.66 20 -9 20 C-9 18.35 -9 16.7 -9 15 C-9.99 14.67 -10.98 14.34 -12 14 C-11.649375 13.46375 -11.29875 12.9275 -10.9375 12.375 C-9.72568104 9.94154796 -9.72568104 9.94154796 -10.625 7 C-10.74875 6.01 -10.8725 5.02 -11 4 C-7.61968437 -0.31281649 -5.27945058 -1.58383517 0 0 Z " fill="#888386" transform="translate(226,254)"/>
<path d="M0 0 C1.65 0 3.3 0 5 0 C4.98952637 0.8878418 4.97905273 1.77568359 4.96826172 2.69042969 C4.93412244 5.99286507 4.90907332 9.29511218 4.89013672 12.59765625 C4.88009573 14.02542078 4.86646019 15.45316483 4.84912109 16.88085938 C4.82478848 18.93624941 4.81349798 20.99136692 4.8046875 23.046875 C4.79421387 24.28276367 4.78374023 25.51865234 4.77294922 26.79199219 C4.98701919 29.81659371 5.40346841 31.46985651 7 34 C8.98 33.505 8.98 33.505 11 33 C11 28.05 11 23.1 11 18 C11.33 18 11.66 18 12 18 C12 22.95 12 27.9 12 33 C12.99 33 13.98 33 15 33 C14.67 34.32 14.34 35.64 14 37 C9.71 37 5.42 37 1 37 C0.67 35.68 0.34 34.36 0 33 C0.99 33 1.98 33 3 33 C3 22.44 3 11.88 3 1 C2.01 0.67 1.02 0.34 0 0 Z " fill="#C2C1C4" transform="translate(136,250)"/>
<path d="M0 0 C0.92876953 -0.00128906 1.85753906 -0.00257813 2.81445312 -0.00390625 C4.26561523 0.00189453 4.26561523 0.00189453 5.74609375 0.0078125 C7.20305664 0.00201172 7.20305664 0.00201172 8.68945312 -0.00390625 C9.61693359 -0.00261719 10.54441406 -0.00132812 11.5 0 C12.35021729 0.00112793 13.20043457 0.00225586 14.07641602 0.00341797 C16.18359375 0.1328125 16.18359375 0.1328125 18.18359375 1.1328125 C18.59765625 3.19921875 18.59765625 3.19921875 18.80859375 5.6953125 C18.88335937 6.52160156 18.958125 7.34789062 19.03515625 8.19921875 C19.08414062 8.83730469 19.133125 9.47539062 19.18359375 10.1328125 C17.86359375 10.1328125 16.54359375 10.1328125 15.18359375 10.1328125 C14.95929688 9.49859375 14.735 8.864375 14.50390625 8.2109375 C13.34573618 5.91265093 13.34573618 5.91265093 10.80078125 5.3046875 C9.89585937 5.16546875 8.9909375 5.02625 8.05859375 4.8828125 C7.14851563 4.73328125 6.2384375 4.58375 5.30078125 4.4296875 C4.60210937 4.33171875 3.9034375 4.23375 3.18359375 4.1328125 C3.18359375 3.1428125 3.18359375 2.1528125 3.18359375 1.1328125 C0.87359375 1.1328125 -1.43640625 1.1328125 -3.81640625 1.1328125 C-3.81640625 2.1228125 -3.81640625 3.1128125 -3.81640625 4.1328125 C-5.13640625 3.8028125 -6.45640625 3.4728125 -7.81640625 3.1328125 C-7.81640625 2.4728125 -7.81640625 1.8128125 -7.81640625 1.1328125 C-4.90766621 0.16323249 -3.02650834 0.00400976 0 0 Z " fill="#999599" transform="translate(259.81640625,445.8671875)"/>
<path d="M0 0 C1.32 0 2.64 0 4 0 C5 3 6 6 7 9 C7.99 9.33 8.98 9.66 10 10 C9.67 10.99 9.34 11.98 9 13 C2.66169154 13.48756219 2.66169154 13.48756219 -0.375 11.25 C-2.91727494 7.72992701 -2.91727494 7.72992701 -3 5 C-1.8125 2.25 -1.8125 2.25 0 0 Z " fill="#817D82" transform="translate(213,269)"/>
<path d="M0 0 C0.86625 0.61875 1.7325 1.2375 2.625 1.875 C5.75628186 3.84654784 8.46384469 4.98966991 12 6 C12 6.99 12 7.98 12 9 C7.25 10.125 7.25 10.125 5 9 C4.67 9.99 4.34 10.98 4 12 C1.69 11.67 -0.62 11.34 -3 11 C-2.34 9.68 -1.68 8.36 -1 7 C-1.66 7 -2.32 7 -3 7 C-1.125 2.25 -1.125 2.25 0 0 Z " fill="#928E93" transform="translate(231,353)"/>
<path d="M0 0 C0.33 0 0.66 0 1 0 C1 4.29 1 8.58 1 13 C3.97 12.34 6.94 11.68 10 11 C10 8.69 10 6.38 10 4 C10.33 4 10.66 4 11 4 C11 5.65 11 7.3 11 9 C11.66 9 12.32 9 13 9 C13.33 9.66 13.66 10.32 14 11 C14.99 11 15.98 11 17 11 C17 11.66 17 12.32 17 13 C16.34 13 15.68 13 15 13 C15.165 13.763125 15.33 14.52625 15.5 15.3125 C16 18 16 18 16 21 C12.125 18.25 12.125 18.25 11 16 C8.47266765 15.34444881 8.47266765 15.34444881 6 15 C6.33 15.99 6.66 16.98 7 18 C5.68 17.67 4.36 17.34 3 17 C3 16.34 3 15.68 3 15 C2.01 14.67 1.02 14.34 0 14 C0 9.38 0 4.76 0 0 Z " fill="#8C898F" transform="translate(147,251)"/>
<path d="M0 0 C0.33 0.66 0.66 1.32 1 2 C2.97888961 2.72693904 4.97954558 3.39816251 7 4 C7.12375 5.216875 7.2475 6.43375 7.375 7.6875 C7.78891306 11.06479059 8.54573451 13.89756695 10 17 C9.01 17.33 8.02 17.66 7 18 C3.8125 15.8125 3.8125 15.8125 1 13 C1 11.68 1 10.36 1 9 C0.34 9 -0.32 9 -1 9 C-1 8.01 -1 7.02 -1 6 C-0.34 6 0.32 6 1 6 C0.67 4.02 0.34 2.04 0 0 Z " fill="#878286" transform="translate(219,258)"/>
<path d="M0 0 C0.33 0.99 0.66 1.98 1 3 C2.32 3 3.64 3 5 3 C5.66 3 6.32 3 7 3 C7 4.32 7 5.64 7 7 C8.2375 6.979375 9.475 6.95875 10.75 6.9375 C13.6640825 6.93233319 16.20953327 7.06984442 19 8 C19 8.66 19 9.32 19 10 C11.74 10 4.48 10 -3 10 C-2.67 9.01 -2.34 8.02 -2 7 C-1.34 7 -0.68 7 0 7 C0 4.69 0 2.38 0 0 Z " fill="#89838A" transform="translate(282,470)"/>
<path d="M0 0 C2.475 0.99 2.475 0.99 5 2 C5 2.66 5 3.32 5 4 C4.34 4 3.68 4 3 4 C2.67 5.65 2.34 7.3 2 9 C3.65 8.67 5.3 8.34 7 8 C7 8.66 7 9.32 7 10 C4.36 10 1.72 10 -1 10 C-1.33 10.66 -1.66 11.32 -2 12 C-0.68 12.33 0.64 12.66 2 13 C1.01 13.33 0.02 13.66 -1 14 C-1.33 15.98 -1.66 17.96 -2 20 C-1.01 20 -0.02 20 1 20 C0.67 20.99 0.34 21.98 0 23 C0 22.34 0 21.68 0 21 C-2.31 21 -4.62 21 -7 21 C-6.72414063 20.34644531 -6.44828125 19.69289063 -6.1640625 19.01953125 C-4.72643933 15.29039464 -3.54896624 11.50630296 -2.375 7.6875 C-2.14554687 6.94693359 -1.91609375 6.20636719 -1.6796875 5.44335938 C-1.11796701 3.6294703 -0.55873176 1.81481192 0 0 Z " fill="#B2ABAF" transform="translate(96,457)"/>
<path d="M0 0 C0.33 1.32 0.66 2.64 1 4 C1.66 4 2.32 4 3 4 C3 3.34 3 2.68 3 2 C3.99 2.33 4.98 2.66 6 3 C6.66 2.01 7.32 1.02 8 0 C7.38857603 7.45937249 7.38857603 7.45937249 5.5625 10 C4 11 4 11 2 11 C1.67 9.68 1.34 8.36 1 7 C-0.10228696 11.40914783 -0.07654536 15.48382401 0 20 C-0.33 20 -0.66 20 -1 20 C-1.33 17.36 -1.66 14.72 -2 12 C-3.98 12 -5.96 12 -8 12 C-8 10.68 -8 9.36 -8 8 C-5.36 7.34 -2.72 6.68 0 6 C0 4.02 0 2.04 0 0 Z " fill="#8D8A93" transform="translate(81,453)"/>
<path d="M0 0 C0.66 0.33 1.32 0.66 2 1 C1.91291331 2.45945288 1.80473093 3.91765868 1.6875 5.375 C1.62949219 6.18710937 1.57148438 6.99921875 1.51171875 7.8359375 C1 10 1 10 -2 12 C-1.67 12.99 -1.34 13.98 -1 15 C-2.65 15 -4.3 15 -6 15 C-6 13.35 -6 11.7 -6 10 C-6.66 10 -7.32 10 -8 10 C-8.99 10 -9.98 10 -11 10 C-10.67 8.68 -10.34 7.36 -10 6 C-8.576875 5.87625 -8.576875 5.87625 -7.125 5.75 C-3.90165132 5.36247285 -3.90165132 5.36247285 -2.75 3 C-2.5025 2.34 -2.255 1.68 -2 1 C-1.34 0.67 -0.68 0.34 0 0 Z " fill="#717273" transform="translate(165,323)"/>
<path d="M0 0 C1.32 0.33 2.64 0.66 4 1 C3.67 11.23 3.34 21.46 3 32 C1.35 32.66 -0.3 33.32 -2 34 C-2 33.01 -2 32.02 -2 31 C-1.01 31 -0.02 31 1 31 C1 22.09 1 13.18 1 4 C-0.32 3.67 -1.64 3.34 -3 3 C-1.75 1.4375 -1.75 1.4375 0 0 Z " fill="#838187" transform="translate(168,446)"/>
<path d="M0 0 C0.66 0 1.32 0 2 0 C2.33 0.99 2.66 1.98 3 3 C3.99 3 4.98 3 6 3 C8.03684712 7.07369424 8.0257259 9.58937864 7 14 C2.125 13.125 2.125 13.125 1 12 C0.95936168 10.33382885 0.957279 8.66611905 1 7 C0.34 7 -0.32 7 -1 7 C-1.33 5.35 -1.66 3.7 -2 2 C-1.34 2 -0.68 2 0 2 C0 1.34 0 0.68 0 0 Z " fill="#7D7981" transform="translate(158,461)"/>
<path d="M0 0 C1.5843317 0.08768248 3.16753567 0.19587329 4.75 0.3125 C6.07257813 0.39951172 6.07257813 0.39951172 7.421875 0.48828125 C10.38172684 1.07576699 11.85364374 1.89339108 14 4 C14.25 7.1875 14.25 7.1875 14 10 C13.01 10.495 13.01 10.495 12 11 C12 10.34 12 9.68 12 9 C11.34 9 10.68 9 10 9 C10 9.66 10 10.32 10 11 C9.34 11 8.68 11 8 11 C7.814375 10.21625 7.62875 9.4325 7.4375 8.625 C6.16038373 5.60623658 6.16038373 5.60623658 2.375 4.6875 C1.26125 4.460625 0.1475 4.23375 -1 4 C-0.67 2.68 -0.34 1.36 0 0 Z " fill="#797579" transform="translate(74,446)"/>
<path d="M0 0 C3.25 -0.375 3.25 -0.375 7 0 C9.5625 2.625 9.5625 2.625 11 6 C10.3061256 9.60814688 9.59713506 11.40286494 7 14 C4.375 13.625 4.375 13.625 2 13 C2.33 12.443125 2.66 11.88625 3 11.3125 C4.18664572 8.56838177 4.44406789 6.96045262 4 4 C2.10415891 1.68622853 2.10415891 1.68622853 0 0 Z " fill="#797378" transform="translate(128,448)"/>
<path d="M0 0 C1.32 0.33 2.64 0.66 4 1 C4 7.6 4 14.2 4 21 C2.68 21 1.36 21 0 21 C-0.66 19.68 -1.32 18.36 -2 17 C-0.68 17 0.64 17 2 17 C2 15.68 2 14.36 2 13 C1.29875 12.443125 0.5975 11.88625 -0.125 11.3125 C-2 9 -2 9 -1.8203125 6.74609375 C-1.29843892 4.46200323 -0.70632466 2.23351313 0 0 Z " fill="#8C878C" transform="translate(316,458)"/>
<path d="M0 0 C1.65 0 3.3 0 5 0 C4.34 0.66 3.68 1.32 3 2 C2.62760773 4.81402683 2.62760773 4.81402683 2.5859375 8.1015625 C2.52792969 9.91914063 2.52792969 9.91914063 2.46875 11.7734375 C2.4378125 13.04445313 2.406875 14.31546875 2.375 15.625 C2.31699219 17.543125 2.31699219 17.543125 2.2578125 19.5 C2.16328951 22.66652017 2.07773643 25.8330304 2 29 C2.99 29 3.98 29 5 29 C5 29.99 5 30.98 5 32 C1.04 32 -2.92 32 -7 32 C-6.34 31.34 -5.68 30.68 -5 30 C-4.67 30 -4.34 30 -4 30 C-3.67 28.35 -3.34 26.7 -3 25 C-1.68 25 -0.36 25 1 25 C0.67 16.75 0.34 8.5 0 0 Z " fill="#817B83" transform="translate(174,448)"/>
<path d="M0 0 C1.65 0.33 3.3 0.66 5 1 C5.33 1.99 5.66 2.98 6 4 C6.99 4.33 7.98 4.66 9 5 C9.33 6.65 9.66 8.3 10 10 C8.35 10.33 6.7 10.66 5 11 C4.7525 10.38125 4.505 9.7625 4.25 9.125 C2.79371361 6.64931313 1.62187494 6.04874998 -1 5 C-0.67 3.35 -0.34 1.7 0 0 Z " fill="#AAA7AA" transform="translate(272,312)"/>
<path d="M0 0 C2.03833424 1.2739589 4.03852126 2.61061923 6 4 C6 4.66 6 5.32 6 6 C6.66 6 7.32 6 8 6 C9.125 9.75 9.125 9.75 8 12 C6.35 11.67 4.7 11.34 3 11 C3 10.34 3 9.68 3 9 C2.34 9 1.68 9 1 9 C1 8.34 1 7.68 1 7 C0.01 6.67 -0.98 6.34 -2 6 C-2.33 5.01 -2.66 4.02 -3 3 C-2.01 2.01 -1.02 1.02 0 0 Z " fill="#9A969A" transform="translate(184,223)"/>
<path d="M0 0 C0.33 0.66 0.66 1.32 1 2 C3.31 2 5.62 2 8 2 C6.60042311 5.38231081 5.26935579 7.27928642 2 9 C-1.85415137 9.43602521 -5.29604525 9.23465158 -9 8 C-9 6.35 -9 4.7 -9 3 C-8.67 3.99 -8.34 4.98 -8 6 C-4.50294871 4.71567661 -4.50294871 4.71567661 -1 3 C-0.67 2.01 -0.34 1.02 0 0 Z " fill="#8A888C" transform="translate(131,471)"/>
<path d="M0 0 C0.33 0 0.66 0 1 0 C1.268125 0.969375 1.53625 1.93875 1.8125 2.9375 C2.204375 3.948125 2.59625 4.95875 3 6 C3.99 6.33 4.98 6.66 6 7 C5 10 5 10 3.296875 11.1796875 C0.49061169 12.1819244 -1.77693736 12.19578721 -4.75 12.125 C-5.73484375 12.10695313 -6.7196875 12.08890625 -7.734375 12.0703125 C-8.85585937 12.03550781 -8.85585937 12.03550781 -10 12 C-9.67 10.68 -9.34 9.36 -9 8 C-8.236875 8.020625 -7.47375 8.04125 -6.6875 8.0625 C-3.89814214 8.12942841 -3.89814214 8.12942841 -1 7 C-0.67 4.69 -0.34 2.38 0 0 Z " fill="#807A83" transform="translate(158,468)"/>
<path d="M0 0 C0.33 0 0.66 0 1 0 C1.33 9.24 1.66 18.48 2 28 C2.99 28 3.98 28 5 28 C5.33 22.72 5.66 17.44 6 12 C6.33 12 6.66 12 7 12 C7 16.95 7 21.9 7 27 C7.99 27.33 8.98 27.66 10 28 C10 28.66 10 29.32 10 30 C5.71 30 1.42 30 -3 30 C-2.505 28.515 -2.505 28.515 -2 27 C-1.34 27 -0.68 27 0 27 C0 18.09 0 9.18 0 0 Z " fill="#A5A0A8" transform="translate(354,450)"/>
<path d="M0 0 C2.68623233 0.07461756 4.41567527 0.49915023 6.4765625 2.265625 C7.875 3.8125 7.875 3.8125 10 7 C9.8125 9.375 9.8125 9.375 9 11 C7.35 10.67 5.7 10.34 4 10 C4 9.34 4 8.68 4 8 C3.360625 7.773125 2.72125 7.54625 2.0625 7.3125 C0 6 0 6 -0.8125 3.4375 C-0.874375 2.633125 -0.93625 1.82875 -1 1 C-0.67 0.67 -0.34 0.34 0 0 Z " fill="#868386" transform="translate(283,323)"/>
<path d="M0 0 C4.38104998 0.50069143 6.95617461 1.78224173 10 5 C10.3125 8.25 10.3125 8.25 10 11 C5.39205908 10.72894465 3.22015754 8.71586523 0.0390625 5.66796875 C-1 4 -1 4 -0.6640625 1.80078125 C-0.44492188 1.20652344 -0.22578125 0.61226563 0 0 Z " fill="#8C8A8D" transform="translate(249,290)"/>
<path d="M0 0 C0.33 0.99 0.66 1.98 1 3 C0.01 3 -0.98 3 -2 3 C-2.66 5.97 -3.32 8.94 -4 12 C-7 11 -7 11 -8.625 8.1875 C-9.67992164 5.74199982 -10.50045341 3.59764224 -11 1 C-7.27569643 0.30710631 -3.78916254 -0.11144596 0 0 Z " fill="#878387" transform="translate(353,447)"/>
<path d="M0 0 C0 2.97 0 5.94 0 9 C-1.32 9 -2.64 9 -4 9 C-4.33 9.66 -4.66 10.32 -5 11 C-5.66 10.34 -6.32 9.68 -7 9 C-6.625 5.875 -6.625 5.875 -6 3 C-6.99 3 -7.98 3 -9 3 C-9 2.01 -9 1.02 -9 0 C-5.52176885 -1.15941038 -3.54104422 -0.70820884 0 0 Z " fill="#827E82" transform="translate(149,447)"/>
<path d="M0 0 C2.95341135 0.13736797 5.20514952 0.35167499 7.546875 2.26171875 C8.9375 3.8125 8.9375 3.8125 11 7 C10.8125 9.375 10.8125 9.375 10 11 C7.625 10.75 7.625 10.75 5 10 C3.6875 7.9375 3.6875 7.9375 3 6 C2.34 6 1.68 6 1 6 C0.67 4.02 0.34 2.04 0 0 Z " fill="#8F898E" transform="translate(193,235)"/>
<path d="M0 0 C3.52775489 0.30237899 5.03808865 1.02980851 7.875 3.25 C10 6 10 6 9.8125 8.8125 C9.544375 9.534375 9.27625 10.25625 9 11 C5.77459071 10.41675605 4.0242389 9.47785202 1.6875 7.1875 C1.15511719 6.68605469 0.62273437 6.18460938 0.07421875 5.66796875 C-1 4 -1 4 -0.66796875 1.80078125 C-0.44753906 1.20652344 -0.22710937 0.61226562 0 0 Z " fill="#908B90" transform="translate(160,202)"/>
<path d="M0 0 C-0.33 0.99 -0.66 1.98 -1 3 C-1.99 3.33 -2.98 3.66 -4 4 C-4 13.9 -4 23.8 -4 34 C-5.65 34 -7.3 34 -9 34 C-9 33.01 -9 32.02 -9 31 C-8.01 31 -7.02 31 -6 31 C-6 22.09 -6 13.18 -6 4 C-6.99 3.67 -7.98 3.34 -9 3 C-9 2.34 -9 1.68 -9 1 C-5.92677456 0.08941469 -3.19902639 -0.08886184 0 0 Z " fill="#999599" transform="translate(72,446)"/>
<path d="M0 0 C3.22540929 0.58324395 4.9757611 1.52214798 7.3125 3.8125 C7.84488281 4.31394531 8.37726563 4.81539063 8.92578125 5.33203125 C10 7 10 7 9.66796875 9.19921875 C9.44753906 9.79347656 9.22710937 10.38773437 9 11 C7.68 11 6.36 11 5 11 C5 10.34 5 9.68 5 9 C4.071875 8.566875 4.071875 8.566875 3.125 8.125 C1 7 1 7 -1 5 C-0.625 2.375 -0.625 2.375 0 0 Z " fill="#979497" transform="translate(261,301)"/>
<path d="M0 0 C2.31 0.66 4.62 1.32 7 2 C7.144375 2.61875 7.28875 3.2375 7.4375 3.875 C7.93152225 6.03258322 7.93152225 6.03258322 9 8 C8.505 8.763125 8.01 9.52625 7.5 10.3125 C5.71349413 12.90200635 5.71349413 12.90200635 6.3125 15.8125 C6.539375 16.534375 6.76625 17.25625 7 18 C6.01 18 5.02 18 4 18 C3.49595192 15.89679937 2.99689492 13.79240209 2.5 11.6875 C2.08234375 9.92986328 2.08234375 9.92986328 1.65625 8.13671875 C1 5 1 5 1 2 C0.34 1.67 -0.32 1.34 -1 1 C-0.67 0.67 -0.34 0.34 0 0 Z " fill="#767379" transform="translate(153,265)"/>
<path d="M0 0 C2.125 -0.4375 2.125 -0.4375 5 0 C7.276147 2.12689146 9.1458722 4.5023433 11 7 C10.34 8.32 9.68 9.64 9 11 C5.09146099 9.69715366 2.53954718 8.2920056 0 5 C-0.25 2.25 -0.25 2.25 0 0 Z " fill="#948E96" transform="translate(171,213)"/>
<path d="M0 0 C0.7425 0.78375 1.485 1.5675 2.25 2.375 C4.54433318 4.56504531 6.12158858 5.82731386 9 7 C8.67 7.99 8.34 8.98 8 10 C1.9453125 10.1953125 1.9453125 10.1953125 0 10 C-2 8 -2 8 -2.25 5 C-2 2 -2 2 0 0 Z " fill="#817D81" transform="translate(219,470)"/>
<path d="M0 0 C6.0546875 -0.1953125 6.0546875 -0.1953125 8 0 C10 2 10 2 10.1953125 4.1640625 C10.17210937 4.97617187 10.14890625 5.78828125 10.125 6.625 C10.10695312 7.44226563 10.08890625 8.25953125 10.0703125 9.1015625 C10.03550781 10.04128906 10.03550781 10.04128906 10 11 C8.68 11 7.36 11 6 11 C5.34 9.02 4.68 7.04 4 5 C2.35 4.67 0.7 4.34 -1 4 C-0.34 3.34 0.32 2.68 1 2 C0.67 1.34 0.34 0.68 0 0 Z " fill="#989499" transform="translate(198,446)"/>
<path d="M0 0 C3.08325358 -0.0582253 6.16636505 -0.09367134 9.25 -0.125 C10.55904297 -0.15013672 10.55904297 -0.15013672 11.89453125 -0.17578125 C12.73886719 -0.18222656 13.58320313 -0.18867188 14.453125 -0.1953125 C15.22817383 -0.20578613 16.00322266 -0.21625977 16.80175781 -0.22705078 C19.25883539 0.02673444 20.87311542 0.77555848 23 2 C17.375 3.125 17.375 3.125 14 2 C14 2.66 14 3.32 14 4 C2.5 4 2.5 4 -1 3 C-0.67 2.01 -0.34 1.02 0 0 Z " fill="#AFA1B0" transform="translate(280,446)"/>
<path d="M0 0 C0.763125 0.20625 1.52625 0.4125 2.3125 0.625 C3 2.4375 3 2.4375 3.3125 4.625 C2.3125 6.4375 2.3125 6.4375 0.3125 7.625 C-3.375 7.3125 -3.375 7.3125 -6.6875 6.625 C-7.3475 4.975 -8.0075 3.325 -8.6875 1.625 C-7.6975 1.625 -6.7075 1.625 -5.6875 1.625 C-2.6875 -0.375 -2.6875 -0.375 0 0 Z " fill="#928F93" transform="translate(234.6875,266.375)"/>
<path d="M0 0 C2.21336414 3.32004621 2.20762974 4.07410932 1.9765625 7.88671875 C1.925 8.82451172 1.8734375 9.76230469 1.8203125 10.72851562 C1.75585938 11.70498047 1.69140625 12.68144531 1.625 13.6875 C1.56828125 14.67556641 1.5115625 15.66363281 1.453125 16.68164062 C1.31166481 19.12182885 1.16025726 21.56098591 1 24 C1.66 23.67 2.32 23.34 3 23 C3.65555119 20.47266765 3.65555119 20.47266765 4 18 C4.33 18 4.66 18 5 18 C5 21.63 5 25.26 5 29 C3.68 29.33 2.36 29.66 1 30 C0 29 0 29 -0.11352539 26.22436523 C-0.10828857 25.01466064 -0.10305176 23.80495605 -0.09765625 22.55859375 C-0.09443359 21.25341797 -0.09121094 19.94824219 -0.08789062 18.60351562 C-0.07953401 17.2148431 -0.07106905 15.82617123 -0.0625 14.4375 C-0.05748666 13.04492344 -0.05292347 11.65234519 -0.04882812 10.25976562 C-0.03699434 6.8398013 -0.0205088 3.41992156 0 0 Z " fill="#6E696F" transform="translate(355,449)"/>
<path d="M0 0 C0 0.99 0 1.98 0 3 C-0.99 3 -1.98 3 -3 3 C-3 4.98 -3 6.96 -3 9 C-4.32 9.33 -5.64 9.66 -7 10 C-7 7.69 -7 5.38 -7 3 C-8.32 2.67 -9.64 2.34 -11 2 C-10.67 1.34 -10.34 0.68 -10 0 C-6.18015204 -0.77811718 -3.73159669 -1.24386556 0 0 Z " fill="#9A969A" transform="translate(323,447)"/>
<path d="M0 0 C2.26274788 0.35355436 3.95088852 0.97544426 6 2 C5.67 4.31 5.34 6.62 5 9 C3.35 9.33 1.7 9.66 0 10 C0 9.01 0 8.02 0 7 C-0.66 7 -1.32 7 -2 7 C-2.125 4.625 -2.125 4.625 -2 2 C-1.34 1.34 -0.68 0.68 0 0 Z " fill="#7B787E" transform="translate(160,253)"/>
<path d="M0 0 C0.33 0 0.66 0 1 0 C1 1.65 1 3.3 1 5 C2.32 5.33 3.64 5.66 5 6 C5 7.98 5 9.96 5 12 C3.68 12 2.36 12 1 12 C1.33 13.98 1.66 15.96 2 18 C1.01 17.67 0.02 17.34 -1 17 C-1.16894443 15.25021843 -1.33506309 13.50016388 -1.5 11.75 C-1.5928125 10.77546875 -1.685625 9.8009375 -1.78125 8.796875 C-1.95800168 6.53697847 -2 4.26679807 -2 2 C-1.34 1.34 -0.68 0.68 0 0 Z " fill="#706D73" transform="translate(82,459)"/>
<path d="M0 0 C2.31 0 4.62 0 7 0 C7.8125 3.1875 7.8125 3.1875 8 7 C5.5625 9.9375 5.5625 9.9375 3 12 C2 8 1 4 0 0 Z " fill="#7E797F" transform="translate(155,448)"/>
<path d="M0 0 C0.66 0.66 1.32 1.32 2 2 C1.175 2.78375 0.35 3.5675 -0.5 4.375 C-3.22988506 6.63721264 -3.22988506 6.63721264 -3 9 C-2.01 9.66 -1.02 10.32 0 11 C-4.455 12.485 -4.455 12.485 -9 14 C-9.33 12.68 -9.66 11.36 -10 10 C-7.875 7.5625 -7.875 7.5625 -5 5 C-4.071875 4.071875 -3.14375 3.14375 -2.1875 2.1875 C-1.1046875 1.1046875 -1.1046875 1.1046875 0 0 Z " fill="#908C8F" transform="translate(208,348)"/>
<path d="M0 0 C0.33 0.66 0.66 1.32 1 2 C0.0625 4.625 0.0625 4.625 -1 7 C-0.01 7.33 0.98 7.66 2 8 C2 8.99 2 9.98 2 11 C0.68 10.67 -0.64 10.34 -2 10 C-2 10.66 -2 11.32 -2 12 C-3.32 12 -4.64 12 -6 12 C-6.33 11.01 -6.66 10.02 -7 9 C-7.66 8.67 -8.32 8.34 -9 8 C-6.03 5.36 -3.06 2.72 0 0 Z " fill="#969397" transform="translate(150,333)"/>
<path d="M0 0 C0.268125 0.556875 0.53625 1.11375 0.8125 1.6875 C2.10128679 4.1972427 3.53946726 6.5869459 5 9 C5.33 9.66 5.66 10.32 6 11 C5.01 11 4.02 11 3 11 C3 10.34 3 9.68 3 9 C1.68 9.33 0.36 9.66 -1 10 C-0.67 9.34 -0.34 8.68 0 8 C-0.66 7.67 -1.32 7.34 -2 7 C-2.33 8.98 -2.66 10.96 -3 13 C-4.32 13 -5.64 13 -7 13 C-6.67 12.01 -6.34 11.02 -6 10 C-5.34 10 -4.68 10 -4 10 C-4.33 8.68 -4.66 7.36 -5 6 C-4.01 6 -3.02 6 -2 6 C-2 4.68 -2 3.36 -2 2 C-1.34 2 -0.68 2 0 2 C0 1.34 0 0.68 0 0 Z " fill="#87858A" transform="translate(110,467)"/>
<path d="M0 0 C0.99 0.99 1.98 1.98 3 3 C2.2265625 4.60875 2.2265625 4.60875 1.4375 6.25 C0.36759718 8.71477612 -0.03572782 9.72132303 0.3125 12.4375 C0.539375 12.953125 0.76625 13.46875 1 14 C0.34 14 -0.32 14 -1 14 C-1 15.98 -1 17.96 -1 20 C-3.75874035 17.24125965 -3.29943408 15.53323529 -3.3125 11.6875 C-3.32925781 10.55699219 -3.34601563 9.42648437 -3.36328125 8.26171875 C-2.97122864 4.74167653 -2.03261266 2.85852914 0 0 Z " fill="#8C8B8E" transform="translate(326,452)"/>
<path d="M0 0 C1.32 0.66 2.64 1.32 4 2 C2.625 3.5 2.625 3.5 1 5 C0.34 5 -0.32 5 -1 5 C-1.226875 5.556875 -1.45375 6.11375 -1.6875 6.6875 C-3.37550036 9.66159588 -5.46676517 11.72008865 -8 14 C-8.66 14 -9.32 14 -10 14 C-9.67 12.02 -9.34 10.04 -9 8 C-7.68 8 -6.36 8 -5 8 C-5 7.34 -5 6.68 -5 6 C-4.34 6 -3.68 6 -3 6 C-3.33 5.01 -3.66 4.02 -4 3 C-3.34 2.34 -2.68 1.68 -2 1 C-1.34 1.33 -0.68 1.66 0 2 C0 1.34 0 0.68 0 0 Z " fill="#99989B" transform="translate(269,227)"/>
<path d="M0 0 C3.37462715 0.54723683 5.08235 1.0549 8 3 C8 3.66 8 4.32 8 5 C7.34 5 6.68 5 6 5 C6 5.66 6 6.32 6 7 C3.6875 7.6875 3.6875 7.6875 1 8 C-0.8125 6.5625 -0.8125 6.5625 -2 5 C-1.34 3.35 -0.68 1.7 0 0 Z " fill="#928F91" transform="translate(241,248)"/>
<path d="M0 0 C2.31998359 0.39999717 3.86323424 0.90567879 5.8125 2.25 C7 4 7 4 6.6875 6.6875 C6.460625 7.450625 6.23375 8.21375 6 9 C2.74456771 8.65120368 1.98126893 7.97866739 -0.25 5.4375 C-1.11625 4.2309375 -1.11625 4.2309375 -2 3 C-1.34 2.01 -0.68 1.02 0 0 Z " fill="#959194" transform="translate(152,193)"/>
<path d="M0 0 C2.375 0.6875 2.375 0.6875 5 2 C6.3125 4.625 6.3125 4.625 7 7 C6 8 6 8 3.625 8.25 C1 8 1 8 -0.875 6.75 C-2 5 -2 5 -1.75 2.875 C-1 1 -1 1 0 0 Z " fill="#9B999B" transform="translate(295,334)"/>
<path d="M0 0 C0 0.66 0 1.32 0 2 C-0.66 2 -1.32 2 -2 2 C-2 2.66 -2 3.32 -2 4 C-3.32 4 -4.64 4 -6 4 C-6.33 5.98 -6.66 7.96 -7 10 C-8.65 9.67 -10.3 9.34 -12 9 C-10.82191948 5.6470016 -9.80593388 3.2447471 -7 1 C-4 0 -4 0 0 0 Z " fill="#79787C" transform="translate(266,231)"/>
<path d="M0 0 C2.56687367 3.8503105 1.83288724 5.58569763 1 10 C0.67 9.34 0.34 8.68 0 8 C-0.66 8 -1.32 8 -2 8 C-2 6.35 -2 4.7 -2 3 C-3.32 3.99 -4.64 4.98 -6 6 C-6.33 4.02 -6.66 2.04 -7 0 C-4.27584084 -1.36207958 -2.87220643 -0.86166193 0 0 Z " fill="#9C999D" transform="translate(226,254)"/>
<path d="M0 0 C1.98 0.66 3.96 1.32 6 2 C6.33 3.98 6.66 5.96 7 8 C6.01 8.66 5.02 9.32 4 10 C0.77686187 7.19275066 -0.64998321 5.31687378 -1 1 C-0.67 0.67 -0.34 0.34 0 0 Z " fill="#7C7B83" transform="translate(225,465)"/>
<path d="M0 0 C0.66 3.3 1.32 6.6 2 10 C0.68 10.33 -0.64 10.66 -2 11 C-4 9 -4 9 -4.1953125 7.0546875 C-4.13020833 5.03645833 -4.06510417 3.01822917 -4 1 C-2 0 -2 0 0 0 Z " fill="#767174" transform="translate(103,446)"/>
<path d="M0 0 C2.51083114 1.25541557 2.87125446 2.50063488 4 5 C7.0745356 4.2236068 7.0745356 4.2236068 9 2 C9.22732116 4.80362763 9.34081872 6.46186517 7.8125 8.875 C6 10 6 10 3.3125 9.6875 C2.549375 9.460625 1.78625 9.23375 1 9 C0.67 9.66 0.34 10.32 0 11 C0 7.33333333 0 3.66666667 0 0 Z " fill="#727274" transform="translate(169,317)"/>
<path d="M0 0 C1.13598633 0.00483398 1.13598633 0.00483398 2.29492188 0.00976562 C3.47344727 0.02233398 3.47344727 0.02233398 4.67578125 0.03515625 C5.47306641 0.03966797 6.27035156 0.04417969 7.09179688 0.04882812 C9.05732382 0.06059775 11.0228121 0.07853277 12.98828125 0.09765625 C12.98828125 0.75765625 12.98828125 1.41765625 12.98828125 2.09765625 C12.32828125 2.09765625 11.66828125 2.09765625 10.98828125 2.09765625 C10.98828125 2.75765625 10.98828125 3.41765625 10.98828125 4.09765625 C8.67828125 4.09765625 6.36828125 4.09765625 3.98828125 4.09765625 C3.98828125 3.10765625 3.98828125 2.11765625 3.98828125 1.09765625 C1.67828125 1.09765625 -0.63171875 1.09765625 -3.01171875 1.09765625 C-3.01171875 2.08765625 -3.01171875 3.07765625 -3.01171875 4.09765625 C-4.33171875 3.76765625 -5.65171875 3.43765625 -7.01171875 3.09765625 C-7.01171875 2.43765625 -7.01171875 1.77765625 -7.01171875 1.09765625 C-4.30455633 0.19526878 -2.77395107 -0.02085677 0 0 Z " fill="#9C979D" transform="translate(259.01171875,445.90234375)"/>
<path d="M0 0 C9.41002278 -0.18451025 9.41002278 -0.18451025 14 1 C12.02 1.99 12.02 1.99 10 3 C10 3.66 10 4.32 10 5 C7.03 4.505 7.03 4.505 4 4 C4 7.63 4 11.26 4 15 C3.67 15 3.34 15 3 15 C3 10.38 3 5.76 3 1 C2.01 0.67 1.02 0.34 0 0 Z " fill="#ABA0AB" transform="translate(146,446)"/>
<path d="M0 0 C0.33 0 0.66 0 1 0 C1 4.29 1 8.58 1 13 C3.97 12.34 6.94 11.68 10 11 C10 8.69 10 6.38 10 4 C10.33 4 10.66 4 11 4 C11 6.64 11 9.28 11 12 C10.34 12 9.68 12 9 12 C8.67 12.99 8.34 13.98 8 15 C7.67 15.33 7.34 15.66 7 16 C7 16.66 7 17.32 7 18 C5.68 17.67 4.36 17.34 3 17 C3 16.34 3 15.68 3 15 C2.01 14.67 1.02 14.34 0 14 C0 9.38 0 4.76 0 0 Z " fill="#B8B5BB" transform="translate(147,251)"/>
<path d="M0 0 C1.65 0.33 3.3 0.66 5 1 C5 1.99 5 2.98 5 4 C5.99 4.33 6.98 4.66 8 5 C8 5.66 8 6.32 8 7 C5.36 7 2.72 7 0 7 C-0.66 5.35 -1.32 3.7 -2 2 C-1.34 1.67 -0.68 1.34 0 1 C0 0.67 0 0.34 0 0 Z " fill="#837E83" transform="translate(377,473)"/>
<path d="M0 0 C2 2 2 2 2.1953125 4.3828125 C2.17210937 5.28773438 2.14890625 6.19265625 2.125 7.125 C2.10695313 8.03507812 2.08890625 8.94515625 2.0703125 9.8828125 C2.04710937 10.58148438 2.02390625 11.28015625 2 12 C1.01 12 0.02 12 -1 12 C-1 11.34 -1 10.68 -1 10 C-1.66 10 -2.32 10 -3 10 C-2.25 2.25 -2.25 2.25 0 0 Z " fill="#A9A2A9" transform="translate(348,466)"/>
<path d="M0 0 C2.97 0.495 2.97 0.495 6 1 C6.33 2.98 6.66 4.96 7 7 C3.98968256 7.93423645 3.13349732 8.04449911 0 7 C0 4.69 0 2.38 0 0 Z " fill="#6F6E72" transform="translate(132,466)"/>
<path d="M0 0 C-0.33 1.65 -0.66 3.3 -1 5 C-1.66 5 -2.32 5 -3 5 C-3.28875 5.639375 -3.5775 6.27875 -3.875 6.9375 C-5 9 -5 9 -7 10 C-7 9.01 -7 8.02 -7 7 C-7.99 6.67 -8.98 6.34 -10 6 C-8.625 4.5 -8.625 4.5 -7 3 C-6.34 3 -5.68 3 -5 3 C-5 2.34 -5 1.68 -5 1 C-3 0 -3 0 0 0 Z " fill="#9D999E" transform="translate(315,183)"/>
<path d="M0 0 C1 3 1 3 0 6 C-1.75 6.9375 -1.75 6.9375 -4 7 C-6.75 5.0625 -6.75 5.0625 -9 3 C-6.38997624 -0.48003168 -4.1689578 -0.27793052 0 0 Z " fill="#9A9497" transform="translate(240,466)"/>
<path d="M0 0 C0.66 0.33 1.32 0.66 2 1 C2 1.66 2 2.32 2 3 C3.32 3.33 4.64 3.66 6 4 C5.1875 5.9375 5.1875 5.9375 4 8 C3.01 8.33 2.02 8.66 1 9 C1 8.01 1 7.02 1 6 C-1.31 6.33 -3.62 6.66 -6 7 C-4.02 4.69 -2.04 2.38 0 0 Z " fill="#8D8C94" transform="translate(253,237)"/>
<path d="M0 0 C0.71929687 0.29003906 1.43859375 0.58007812 2.1796875 0.87890625 C2.90414062 1.16636719 3.62859375 1.45382813 4.375 1.75 C4.92929688 1.97816406 5.48359375 2.20632812 6.0546875 2.44140625 C5.7246875 3.76140625 5.3946875 5.08140625 5.0546875 6.44140625 C5.0546875 5.45140625 5.0546875 4.46140625 5.0546875 3.44140625 C3.4046875 3.77140625 1.7546875 4.10140625 0.0546875 4.44140625 C0.0546875 5.10140625 0.0546875 5.76140625 0.0546875 6.44140625 C-2.2553125 6.11140625 -4.5653125 5.78140625 -6.9453125 5.44140625 C-3.33551101 -0.9577873 -3.33551101 -0.9577873 0 0 Z " fill="#8B8A8F" transform="translate(219.9453125,163.55859375)"/>
<path d="M0 0 C0.33 0 0.66 0 1 0 C1.33 8.91 1.66 17.82 2 27 C2.66 27.33 3.32 27.66 4 28 C1.69 28 -0.62 28 -3 28 C-3 27.01 -3 26.02 -3 25 C-2.01 25 -1.02 25 0 25 C0 16.75 0 8.5 0 0 Z " fill="#8C8990" transform="translate(189,452)"/>
<path d="M0 0 C2.97 0 5.94 0 9 0 C9.33 0.66 9.66 1.32 10 2 C9.34 2 8.68 2 8 2 C8 2.66 8 3.32 8 4 C5.03 3.505 5.03 3.505 2 3 C2 7.29 2 11.58 2 16 C1.67 16 1.34 16 1 16 C0.67 10.72 0.34 5.44 0 0 Z " fill="#969298" transform="translate(148,461)"/>
<path d="M0 0 C0.99 0 1.98 0 3 0 C3 4.95 3 9.9 3 15 C1.68 14.67 0.36 14.34 -1 14 C-1.33 12.68 -1.66 11.36 -2 10 C-0.68 10 0.64 10 2 10 C1.67 8.35 1.34 6.7 1 5 C0.01 4.67 -0.98 4.34 -2 4 C-1.34 2.68 -0.68 1.36 0 0 Z " fill="#99969C" transform="translate(305,259)"/>
<path d="M0 0 C0.6875 1.9375 0.6875 1.9375 1 4 C0.67 4.66 0.34 5.32 0 6 C-0.04022391 8.3329866 -0.04320247 10.66706666 0 13 C-0.33 13 -0.66 13 -1 13 C-1.33 10.36 -1.66 7.72 -2 5 C-3.98 5 -5.96 5 -8 5 C-8 3.68 -8 2.36 -8 1 C-2.25 -1.125 -2.25 -1.125 0 0 Z " fill="#9B959D" transform="translate(81,460)"/>
<path d="M0 0 C3.80881639 1.44472346 5.29742886 3.32603071 7 7 C6.67 7.99 6.34 8.98 6 10 C3.525 9.01 3.525 9.01 1 8 C0.67 5.36 0.34 2.72 0 0 Z " fill="#6F6D6F" transform="translate(222,266)"/>
<path d="M0 0 C1.32 0 2.64 0 4 0 C3.7834375 1.3303125 3.7834375 1.3303125 3.5625 2.6875 C2.73256094 8.42593581 2.40854359 14.21954276 2 20 C1.67 20 1.34 20 1 20 C1 14.72 1 9.44 1 4 C0.01 3.67 -0.98 3.34 -2 3 C-1.34 2.01 -0.68 1.02 0 0 Z " fill="#9C999E" transform="translate(329,448)"/>
<path d="M0 0 C2.31 0 4.62 0 7 0 C6.45912682 3.78611227 4.88277668 5.55400767 2 8 C1.34 8 0.68 8 0 8 C0 5.36 0 2.72 0 0 Z " fill="#7B777B" transform="translate(256,447)"/>
<path d="M0 0 C2 2 2 2 2.125 5.625 C2.08375 6.73875 2.0425 7.8525 2 9 C2.66 9 3.32 9 4 9 C4 7.02 4 5.04 4 3 C4.66 3 5.32 3 6 3 C6 4.98 6 6.96 6 9 C5.01 9.33 4.02 9.66 3 10 C2.67 10.66 2.34 11.32 2 12 C1.34 11.67 0.68 11.34 0 11 C0 7.37 0 3.74 0 0 Z " fill="#6C6B6F" transform="translate(116,464)"/>
<path d="M0 0 C3.875 3.75 3.875 3.75 5 6 C5.66 6 6.32 6 7 6 C6 9 6 9 3 11 C3 10.01 3 9.02 3 8 C2.34 7.67 1.68 7.34 1 7 C0.67 6.34 0.34 5.68 0 5 C-0.66 5 -1.32 5 -2 5 C-2.33 4.01 -2.66 3.02 -3 2 C-2.01 1.34 -1.02 0.68 0 0 Z " fill="#747277" transform="translate(307,458)"/>
<path d="M0 0 C0.33 0 0.66 0 1 0 C1.0825 1.11375 1.165 2.2275 1.25 3.375 C1.57873787 7.05753944 1.57873787 7.05753944 4.0625 8.4375 C4.701875 8.623125 5.34125 8.80875 6 9 C6 9.99 6 10.98 6 12 C3.04335481 13.4783226 0.25770263 13.06032783 -3 13 C-1.68 12.34 -0.36 11.68 1 11 C0.34 10.67 -0.32 10.34 -1 10 C-0.67 6.7 -0.34 3.4 0 0 Z " fill="#B2B0B2" transform="translate(164,274)"/>
<path d="M0 0 C-0.33 1.65 -0.66 3.3 -1 5 C-2.98 5.33 -4.96 5.66 -7 6 C-7.33 6.99 -7.66 7.98 -8 9 C-8.99 8.34 -9.98 7.68 -11 7 C-9.9296491 5.82141137 -8.84316035 4.6574639 -7.75 3.5 C-7.14671875 2.8503125 -6.5434375 2.200625 -5.921875 1.53125 C-4 0 -4 0 0 0 Z " fill="#7B797C" transform="translate(285,213)"/>
<path d="M0 0 C0.66 0.33 1.32 0.66 2 1 C1.67 4.63 1.34 8.26 1 12 C-1 8 -1 8 -1 6 C-1.99 6.33 -2.98 6.66 -4 7 C-4 5.35 -4 3.7 -4 2 C-2.125 0.9375 -2.125 0.9375 0 0 Z " fill="#706F72" transform="translate(147,455)"/>
<path d="M0 0 C0.99 0 1.98 0 3 0 C2.34 2.64 1.68 5.28 1 8 C0.67 7.34 0.34 6.68 0 6 C-0.66 6 -1.32 6 -2 6 C-2.33 7.98 -2.66 9.96 -3 12 C-3.33 12 -3.66 12 -4 12 C-4 9.03 -4 6.06 -4 3 C-2.68 2.67 -1.36 2.34 0 2 C0 1.34 0 0.68 0 0 Z " fill="#726F73" transform="translate(71,447)"/>
<path d="M0 0 C0.33 0.99 0.66 1.98 1 3 C1.66 3.33 2.32 3.66 3 4 C3 5.32 3 6.64 3 8 C0.69 8 -1.62 8 -4 8 C-4.25 5.6875 -4.25 5.6875 -4 3 C-2 1.1875 -2 1.1875 0 0 Z " fill="#727274" transform="translate(181,307)"/>
<path d="M0 0 C0.99 0 1.98 0 3 0 C3.33 0.99 3.66 1.98 4 3 C4.66 3 5.32 3 6 3 C4.92598892 5.91517292 4.22189824 7.77810176 2 10 C0.4375 8.75 0.4375 8.75 -1 7 C-0.6875 4.8125 -0.6875 4.8125 0 3 C0 3.66 0 4.32 0 5 C0.66 5 1.32 5 2 5 C2 4.01 2 3.02 2 2 C1.34 2 0.68 2 0 2 C0 1.34 0 0.68 0 0 Z " fill="#A7A2A7" transform="translate(226,456)"/>
<path d="M0 0 C0.33 0 0.66 0 1 0 C1.268125 0.969375 1.53625 1.93875 1.8125 2.9375 C2.204375 3.948125 2.59625 4.95875 3 6 C3.99 6.33 4.98 6.66 6 7 C5.67 7.99 5.34 8.98 5 10 C2.9375 10.6875 2.9375 10.6875 1 11 C0.67 10.01 0.34 9.02 0 8 C-0.99 7.67 -1.98 7.34 -3 7 C-2.34 7 -1.68 7 -1 7 C-0.67 4.69 -0.34 2.38 0 0 Z " fill="#938F95" transform="translate(158,468)"/>
<path d="M0 0 C0.66 0.33 1.32 0.66 2 1 C1.01 2.485 1.01 2.485 0 4 C0.66 4 1.32 4 2 4 C0.3081198 7.3837604 -2.78770961 7.92651486 -6.25 9.125 C-7.61125 9.558125 -7.61125 9.558125 -9 10 C-8.06409496 8.8944811 -7.12620142 7.79064547 -6.1875 6.6875 C-5.66542969 6.07261719 -5.14335937 5.45773437 -4.60546875 4.82421875 C-3.12827531 3.14575321 -1.59960869 1.56117966 0 0 Z " fill="#99989A" transform="translate(196,291)"/>
<path d="M0 0 C0.12375 0.61875 0.2475 1.2375 0.375 1.875 C0.87197356 4.19120832 0.87197356 4.19120832 3 6 C3.33 5.34 3.66 4.68 4 4 C5.32 4.33 6.64 4.66 8 5 C8 5.99 8 6.98 8 8 C1.375 8.25 1.375 8.25 -2 6 C-1.125 1.125 -1.125 1.125 0 0 Z " fill="#858488" transform="translate(212,202)"/>
<path d="M0 0 C-0.33 2.31 -0.66 4.62 -1 7 C-0.01 7 0.98 7 2 7 C1.67 7.99 1.34 8.98 1 10 C1 9.34 1 8.68 1 8 C-1.31 8 -3.62 8 -6 8 C-3.18918919 0 -3.18918919 0 0 0 Z " fill="#99949A" transform="translate(95,470)"/>
<path d="M0 0 C0.99 0 1.98 0 3 0 C3 3.63 3 7.26 3 11 C1.02 11.99 1.02 11.99 -1 13 C-1.33 11.68 -1.66 10.36 -2 9 C-1.34 9 -0.68 9 0 9 C1.04214691 4.38492226 1.04214691 4.38492226 0 0 Z " fill="#737176" transform="translate(327,452)"/>
<path d="M0 0 C0 0.66 0 1.32 0 2 C-1.2065625 2.433125 -1.2065625 2.433125 -2.4375 2.875 C-5.1326468 3.73262568 -5.1326468 3.73262568 -6 6 C-6 5.34 -6 4.68 -6 4 C-6.99 4 -7.98 4 -9 4 C-9.33 3.01 -9.66 2.02 -10 1 C-6.78548731 -0.60725635 -3.56387464 -0.05748185 0 0 Z " fill="#A19AA2" transform="translate(195,446)"/>
<path d="M0 0 C0.433125 0.66 0.86625 1.32 1.3125 2 C2.1478125 2.99 2.1478125 2.99 3 4 C3.99 4 4.98 4 6 4 C6 4.66 6 5.32 6 6 C2.92677456 6.91058531 0.19902639 7.08886184 -3 7 C-3.33 5.68 -3.66 4.36 -4 3 C-2.68 3 -1.36 3 0 3 C0 2.01 0 1.02 0 0 Z " fill="#9C979E" transform="translate(140,280)"/>
<path d="M0 0 C3.3 0.33 6.6 0.66 10 1 C9.34 1.66 8.68 2.32 8 3 C7.67 3.99 7.34 4.98 7 6 C4.36 5.34 1.72 4.68 -1 4 C-0.67 2.68 -0.34 1.36 0 0 Z " fill="#A09DA1" transform="translate(74,446)"/>
<path d="M0 0 C-0.33 0.66 -0.66 1.32 -1 2 C1.97 2.33 4.94 2.66 8 3 C8 3.33 8 3.66 8 4 C6.06257659 4.02703381 4.12504521 4.04641125 2.1875 4.0625 C1.10855469 4.07410156 0.02960938 4.08570313 -1.08203125 4.09765625 C-4 4 -4 4 -7 3 C-7 2.01 -7 1.02 -7 0 C-3.98968256 -0.93423645 -3.13349732 -1.04449911 0 0 Z " fill="#BCB8BD" transform="translate(292,283)"/>
<path d="M0 0 C0.598125 0.825 1.19625 1.65 1.8125 2.5 C2.8953125 3.7375 2.8953125 3.7375 4 5 C4.99 5 5.98 5 7 5 C6.01 5.495 6.01 5.495 5 6 C5 6.66 5 7.32 5 8 C5.99 8.33 6.98 8.66 8 9 C6.02 9.99 6.02 9.99 4 11 C2.02 7.7 0.04 4.4 -2 1 C-1.34 0.67 -0.68 0.34 0 0 Z " fill="#8B8A8E" transform="translate(307,462)"/>
<path d="M0 0 C0.99 0.33 1.98 0.66 3 1 C3 1.66 3 2.32 3 3 C2.01 3 1.02 3 0 3 C-0.66 5.97 -1.32 8.94 -2 12 C-2.99 11.67 -3.98 11.34 -5 11 C-6.1875 7.9375 -6.1875 7.9375 -7 5 C-6.34 5 -5.68 5 -5 5 C-4.34 6.32 -3.68 7.64 -3 9 C-2.87625 7.700625 -2.7525 6.40125 -2.625 5.0625 C-2.4140625 2.84765625 -2.4140625 2.84765625 -2 1 C-1.34 0.67 -0.68 0.34 0 0 Z " fill="#BBB8BA" transform="translate(351,447)"/>
<path d="M0 0 C2.64 0.33 5.28 0.66 8 1 C7.01 1.66 6.02 2.32 5 3 C5 3.99 5 4.98 5 6 C2.69 5.34 0.38 4.68 -2 4 C-2.33 4.66 -2.66 5.32 -3 6 C-2.67 4.68 -2.34 3.36 -2 2 C-1.34 2 -0.68 2 0 2 C0 1.34 0 0.68 0 0 Z " fill="#A4A0A4" transform="translate(125,446)"/>
<path d="M0 0 C1.9375 0.125 1.9375 0.125 4 1 C5.25 3.5625 5.25 3.5625 6 6 C4.02 6 2.04 6 0 6 C-0.38218767 4.34385343 -0.71395102 2.67542976 -1 1 C-0.67 0.67 -0.34 0.34 0 0 Z " fill="#89878A" transform="translate(261,301)"/>
<path d="M0 0 C0.33 0 0.66 0 1 0 C1.33 3.3 1.66 6.6 2 10 C1.01 10.66 0.02 11.32 -1 12 C-2.32 9.36 -3.64 6.72 -5 4 C-4.01 4 -3.02 4 -2 4 C-1.67 4.66 -1.34 5.32 -1 6 C-0.67 4.02 -0.34 2.04 0 0 Z " fill="#9E9B9E" transform="translate(314,248)"/>
<path d="M0 0 C0.33 0.66 0.66 1.32 1 2 C1.66 2 2.32 2 3 2 C3 2.66 3 3.32 3 4 C3.66 4.33 4.32 4.66 5 5 C-0.57936203 5.94743883 -3.19155649 6.20562901 -8 3 C-7.05125 2.690625 -6.1025 2.38125 -5.125 2.0625 C-2.13919592 1.12605258 -2.13919592 1.12605258 0 0 Z " fill="#B7B4B6" transform="translate(344,474)"/>
<path d="M0 0 C3 0.25 3 0.25 5 2.25 C4.625 4.375 4.625 4.375 4 6.25 C3.67 4.93 3.34 3.61 3 2.25 C2.01 2.25 1.02 2.25 0 2.25 C-0.66 3.57 -1.32 4.89 -2 6.25 C-2 5.26 -2 4.27 -2 3.25 C-2.99 2.92 -3.98 2.59 -5 2.25 C-3 0.25 -3 0.25 0 0 Z " fill="#999599" transform="translate(226,453.75)"/>
<path d="M0 0 C0.99 0 1.98 0 3 0 C3 0.66 3 1.32 3 2 C4.32 2.33 5.64 2.66 7 3 C6.67 4.32 6.34 5.64 6 7 C4.35 6.67 2.7 6.34 1 6 C0.67 4.02 0.34 2.04 0 0 Z " fill="#918E90" transform="translate(186,228)"/>
<path d="M0 0 C0.33 0.99 0.66 1.98 1 3 C2.98 2.67 4.96 2.34 7 2 C6.01 2.495 6.01 2.495 5 3 C7.475 3.99 7.475 3.99 10 5 C10 4.34 10 3.68 10 3 C10.66 3 11.32 3 12 3 C11.67 3.99 11.34 4.98 11 6 C9.741875 6.020625 8.48375 6.04125 7.1875 6.0625 C6.47980469 6.07410156 5.77210937 6.08570313 5.04296875 6.09765625 C3 6 3 6 0 5 C0 3.35 0 1.7 0 0 Z " fill="#979199" transform="translate(122,474)"/>
<path d="M0 0 C2.475 0.99 2.475 0.99 5 2 C4.01 2.495 4.01 2.495 3 3 C2.34786708 5.02463255 2.34786708 5.02463255 2 7 C1.34 6.34 0.68 5.68 0 5 C-0.66 6.65 -1.32 8.3 -2 10 C-2.33 10 -2.66 10 -3 10 C-2.25 3.375 -2.25 3.375 0 0 Z " fill="#9D9C9E" transform="translate(219,466)"/>
<path d="M0 0 C0.66 0 1.32 0 2 0 C2.06058594 0.90363281 2.12117188 1.80726563 2.18359375 2.73828125 C2.26738281 3.91777344 2.35117187 5.09726562 2.4375 6.3125 C2.51871094 7.48425781 2.59992188 8.65601563 2.68359375 9.86328125 C2.8867371 13.02590958 2.8867371 13.02590958 4 16 C2.35 16 0.7 16 -1 16 C-1 15.01 -1 14.02 -1 13 C-0.34 13 0.32 13 1 13 C0.67 8.71 0.34 4.42 0 0 Z " fill="#C3BFC6" transform="translate(373,464)"/>
<path d="M0 0 C1.65 0 3.3 0 5 0 C3.68 0.33 2.36 0.66 1 1 C1 4.96 1 8.92 1 13 C1.99 13.33 2.98 13.66 4 14 C4 14.66 4 15.32 4 16 C2.68 16 1.36 16 0 16 C0 10.72 0 5.44 0 0 Z " fill="#B0AEB2" transform="translate(262,464)"/>
<path d="M0 0 C0.66 0.33 1.32 0.66 2 1 C1.67 2.32 1.34 3.64 1 5 C-2.3 4.67 -5.6 4.34 -9 4 C-8.67 3.01 -8.34 2.02 -8 1 C-5.36 1.33 -2.72 1.66 0 2 C0 1.34 0 0.68 0 0 Z " fill="#736C71" transform="translate(103,465)"/>
<path d="M0 0 C0.66 0 1.32 0 2 0 C2.33 0.66 2.66 1.32 3 2 C3.66 2 4.32 2 5 2 C4.67 4.31 4.34 6.62 4 9 C3.01 9 2.02 9 1 9 C0.67 6.03 0.34 3.06 0 0 Z " fill="#A39FA4" transform="translate(177,449)"/>
<path d="M0 0 C0 2.83967231 -0.40267181 5.23735711 -1 8 C-3.375 8.625 -3.375 8.625 -6 9 C-6.66 8.34 -7.32 7.68 -8 7 C-7.34 7 -6.68 7 -6 7 C-6 6.34 -6 5.68 -6 5 C-4.04072937 3.2856382 -2.04119788 1.61594832 0 0 Z " fill="#8D8B8E" transform="translate(163,321)"/>
<path d="M0 0 C0.99 0.33 1.98 0.66 3 1 C2.60196439 3.88575819 2.20990931 4.82189513 -0.0625 6.75 C-0.701875 7.1625 -1.34125 7.575 -2 8 C-2.66 6.68 -3.32 5.36 -4 4 C-2.68 3.67 -1.36 3.34 0 3 C0 2.01 0 1.02 0 0 Z " fill="#8C8B92" transform="translate(166,330)"/>
<path d="M0 0 C1.98 0 3.96 0 6 0 C6 1.98 6 3.96 6 6 C5.01 6.495 5.01 6.495 4 7 C4 6.01 4 5.02 4 4 C3.01 4 2.02 4 1 4 C0.67 2.68 0.34 1.36 0 0 Z " fill="#746E72" transform="translate(308,248)"/>
<path d="M0 0 C0.78375 0.04125 1.5675 0.0825 2.375 0.125 C1.900625 0.74375 1.42625 1.3625 0.9375 2 C-0.64917441 4.03205546 -0.64917441 4.03205546 -1.625 6.125 C-2.945 6.125 -4.265 6.125 -5.625 6.125 C-4.86443086 2.32215429 -4.27658992 0.20364714 0 0 Z " fill="#7E7C7E" transform="translate(295.625,199.875)"/>
<path d="M0 0 C1.65 0.33 3.3 0.66 5 1 C4.01 2.32 3.02 3.64 2 5 C1.34 4.67 0.68 4.34 0 4 C-0.33 4.66 -0.66 5.32 -1 6 C-1.99 6.495 -1.99 6.495 -3 7 C-3.99 6.34 -4.98 5.68 -6 5 C-5.38125 4.731875 -4.7625 4.46375 -4.125 4.1875 C-1.7004767 3.04443152 -1.7004767 3.04443152 0 0 Z " fill="#848285" transform="translate(212,169)"/>
<path d="M0 0 C0.33 0 0.66 0 1 0 C1 2.64 1 5.28 1 8 C-0.32 8 -1.64 8 -3 8 C-3.66 6.68 -4.32 5.36 -5 4 C-3.68 4 -2.36 4 -1 4 C-0.67 2.68 -0.34 1.36 0 0 Z " fill="#938F94" transform="translate(319,471)"/>
<path d="M0 0 C2.64 0 5.28 0 8 0 C7.34 0.66 6.68 1.32 6 2 C2.875 1.625 2.875 1.625 0 1 C0 0.67 0 0.34 0 0 Z M3.625 1.875 C4.40875 1.91625 5.1925 1.9575 6 2 C6 3.32 6 4.64 6 6 C3.69 5.34 1.38 4.68 -1 4 C1 2 1 2 3.625 1.875 Z " fill="#B19BB6" transform="translate(198,446)"/>
<path d="M0 0 C1.32 0.66 2.64 1.32 4 2 C2.35830472 4.02054804 0.69088222 6.02043058 -1 8 C-1.33 8 -1.66 8 -2 8 C-1.125 1.125 -1.125 1.125 0 0 Z " fill="#908F94" transform="translate(243,325)"/>
<path d="M0 0 C0.33 1.32 0.66 2.64 1 4 C-0.32 4 -1.64 4 -3 4 C-3.99 4.495 -3.99 4.495 -5 5 C-5.99 3.68 -6.98 2.36 -8 1 C-4.93251126 -0.86240388 -3.40254489 -1.2151946 0 0 Z " fill="#908A90" transform="translate(228,276)"/>
<path d="M0 0 C0.33 0.99 0.66 1.98 1 3 C2.32 2.67 3.64 2.34 5 2 C4.625 3.9375 4.625 3.9375 4 6 C3.01 6.495 3.01 6.495 2 7 C2 6.01 2 5.02 2 4 C-0.31 4.66 -2.62 5.32 -5 6 C-3.35 4.02 -1.7 2.04 0 0 Z " fill="#A5A4A6" transform="translate(283,209)"/>
<path d="M0 0 C-0.25 2.375 -0.25 2.375 -1 5 C-3.0625 6.3125 -3.0625 6.3125 -5 7 C-5.33 6.34 -5.66 5.68 -6 5 C-5.01 5 -4.02 5 -3 5 C-3 4.34 -3 3.68 -3 3 C-4.32 3 -5.64 3 -7 3 C-5.40442685 -0.19114631 -3.35905282 0 0 0 Z " fill="#999497" transform="translate(242,473)"/>
<path d="M0 0 C1.98 0.495 1.98 0.495 4 1 C2.75023244 4.65316671 2.32901247 5.78065836 -1 8 C-1.125 2.25 -1.125 2.25 0 0 Z " fill="#746F76" transform="translate(159,452)"/>
<path d="M0 0 C1.625 1.625 1.625 1.625 3 4 C2.375 7.125 2.375 7.125 1 10 C0.01 10.66 -0.98 11.32 -2 12 C-1.125 7.25 -1.125 7.25 0 5 C0.0396713 3.33380554 0.04384447 1.66608987 0 0 Z " fill="#969496" transform="translate(136,450)"/>
<path d="M0 0 C0.33 0.99 0.66 1.98 1 3 C-0.4375 5.6875 -0.4375 5.6875 -2 8 C-2.99 7.67 -3.98 7.34 -5 7 C-3.75023244 3.34683329 -3.32901247 2.21934164 0 0 Z " fill="#818084" transform="translate(212,350)"/>
<path d="M0 0 C0.66 0.66 1.32 1.32 2 2 C-3.0940919 8.70459519 -3.0940919 8.70459519 -6.875 9.9375 C-7.57625 9.958125 -8.2775 9.97875 -9 10 C-9 9.34 -9 8.68 -9 8 C-7.28515625 6.5625 -7.28515625 6.5625 -5.0625 5 C-2.01367363 2.95183196 -2.01367363 2.95183196 0 0 Z " fill="#A19DA1" transform="translate(208,348)"/>
<path d="M0 0 C1.65 1.65 3.3 3.3 5 5 C4.67 5.99 4.34 6.98 4 8 C2.68 7.67 1.36 7.34 0 7 C-0.93423645 3.98968256 -1.04449911 3.13349732 0 0 Z " fill="#817D80" transform="translate(198,236)"/>
<path d="M0 0 C1.32 0.66 2.64 1.32 4 2 C2.625 3.5 2.625 3.5 1 5 C0.34 5 -0.32 5 -1 5 C-1.33 5.99 -1.66 6.98 -2 8 C-2.66 6.68 -3.32 5.36 -4 4 C-3.34 3.01 -2.68 2.02 -2 1 C-1.34 1.33 -0.68 1.66 0 2 C0 1.34 0 0.68 0 0 Z " fill="#A09FA1" transform="translate(269,227)"/>
<path d="M0 0 C1.32 0.33 2.64 0.66 4 1 C4.33 2.65 4.66 4.3 5 6 C3.35 5.67 1.7 5.34 0 5 C0 3.35 0 1.7 0 0 Z " fill="#817A7D" transform="translate(171,213)"/>
<path d="M0 0 C0.99 0 1.98 0 3 0 C3 0.66 3 1.32 3 2 C3.66 2 4.32 2 5 2 C5.33 3.98 5.66 5.96 6 8 C2.83884224 6.63016497 2.0072908 6.0109362 0 3 C0 2.01 0 1.02 0 0 Z " fill="#8D8C8E" transform="translate(201,180)"/>
<path d="M0 0 C0.33 0.99 0.66 1.98 1 3 C1.66 3 2.32 3 3 3 C3 3.99 3 4.98 3 6 C2.34 6 1.68 6 1 6 C1 7.32 1 8.64 1 10 C0.01 10 -0.98 10 -2 10 C-1.33333333 6.66666667 -0.66666667 3.33333333 0 0 Z " fill="#706E72" transform="translate(107,463)"/>
<path d="M0 0 C0.33 0 0.66 0 1 0 C1 3.96 1 7.92 1 12 C-0.32 12 -1.64 12 -3 12 C-3.33 10.68 -3.66 9.36 -4 8 C-3.01 8.33 -2.02 8.66 -1 9 C-0.67 6.03 -0.34 3.06 0 0 Z " fill="#B4B0B6" transform="translate(271,457)"/>
<path d="M0 0 C1.258125 -0.020625 2.51625 -0.04125 3.8125 -0.0625 C4.52019531 -0.07410156 5.22789062 -0.08570313 5.95703125 -0.09765625 C8 0 8 0 11 1 C10.67 1.99 10.34 2.98 10 4 C8.72125 3.71125 7.4425 3.4225 6.125 3.125 C5.40570313 2.96257812 4.68640625 2.80015625 3.9453125 2.6328125 C2 2 2 2 0 0 Z " fill="#A8A0A8" transform="translate(374,446)"/>
<path d="M0 0 C1.67542976 0.28604898 3.34385343 0.61781233 5 1 C4.67 2.32 4.34 3.64 4 5 C2.68 5 1.36 5 0 5 C-0.5625 3.0625 -0.5625 3.0625 -1 1 C-0.67 0.67 -0.34 0.34 0 0 Z " fill="#8B8A8C" transform="translate(277,318)"/>
<path d="M0 0 C2.8992226 0.46761655 3.86675182 0.86675182 6 3 C5.625 5.625 5.625 5.625 5 8 C4.38125 7.21625 3.7625 6.4325 3.125 5.625 C1.10141339 3.03162353 1.10141339 3.03162353 -1 1 C-0.67 0.67 -0.34 0.34 0 0 Z " fill="#8B898C" transform="translate(201,287)"/>
<path d="M0 0 C1.5 1.375 1.5 1.375 3 3 C3 3.66 3 4.32 3 5 C2.34 5 1.68 5 1 5 C1 5.66 1 6.32 1 7 C0.01 7 -0.98 7 -2 7 C-2.125 4.625 -2.125 4.625 -2 2 C-1.34 1.34 -0.68 0.68 0 0 Z " fill="#727073" transform="translate(219,470)"/>
<path d="M0 0 C3.63 0.33 7.26 0.66 11 1 C10.67 1.99 10.34 2.98 10 4 C9.01 4.33 8.02 4.66 7 5 C7 4.34 7 3.68 7 3 C4.69 2.34 2.38 1.68 0 1 C0 0.67 0 0.34 0 0 Z " fill="#A8A6A9" transform="translate(353,446)"/>
<path d="M0 0 C0.99 0.33 1.98 0.66 3 1 C2.2884375 1.61875 2.2884375 1.61875 1.5625 2.25 C-0.16266518 4.182185 -0.56584875 5.48192275 -1 8 C-2.32 7.67 -3.64 7.34 -5 7 C-3.70700306 4.11562221 -2.34058637 2.12780579 0 0 Z " fill="#757076" transform="translate(209,350)"/>
<path d="M0 0 C0.66 0 1.32 0 2 0 C3.87525531 3.16449334 4.1825313 5.34937407 4 9 C4 10.32 4 11.64 4 13 C3.34 12.67 2.68 12.34 2 12 C1.3671875 9.27734375 1.3671875 9.27734375 0.875 5.9375 C0.70742187 4.83277344 0.53984375 3.72804688 0.3671875 2.58984375 C0.24601563 1.73519531 0.12484375 0.88054687 0 0 Z " fill="#959294" transform="translate(155,271)"/>
<path d="M0 0 C0.66 0.33 1.32 0.66 2 1 C0.60667426 4.36720387 -0.9789286 5.9859524 -4 8 C-4.33 6.68 -4.66 5.36 -5 4 C-4.34 3.67 -3.68 3.34 -3 3 C-1.9805881 2.01979625 -0.97753644 1.02196992 0 0 Z " fill="#A19FA1" transform="translate(280,217)"/>
<path d="M0 0 C0.33 0.99 0.66 1.98 1 3 C-1.31 4.98 -3.62 6.96 -6 9 C-6.33 7.68 -6.66 6.36 -7 5 C-6.01 4.34 -5.02 3.68 -4 3 C-2.66209359 2.00612666 -1.32781878 1.0073108 0 0 Z " fill="#A5A3A6" transform="translate(297,201)"/>
<path d="M0 0 C1.32 0 2.64 0 4 0 C4.33 1.32 4.66 2.64 5 4 C4.01 4.66 3.02 5.32 2 6 C1.34 5.34 0.68 4.68 0 4 C0 2.68 0 1.36 0 0 Z " fill="#757177" transform="translate(227,469)"/>
<path d="M0 0 C0.99 0.33 1.98 0.66 3 1 C2.67 2.32 2.34 3.64 2 5 C0.68 5 -0.64 5 -2 5 C-1.125 1.125 -1.125 1.125 0 0 Z " fill="#8D848C" transform="translate(295,334)"/>
<path d="M0 0 C2.4375 0.375 2.4375 0.375 5 1 C5.33 1.66 5.66 2.32 6 3 C4.68 2.67 3.36 2.34 2 2 C2 3.65 2 5.3 2 7 C1.01 6.34 0.02 5.68 -1 5 C-0.67 3.35 -0.34 1.7 0 0 Z " fill="#AFADB2" transform="translate(283,323)"/>
<path d="M0 0 C1.98 0.495 1.98 0.495 4 1 C4 2.32 4 3.64 4 5 C2.68 4.67 1.36 4.34 0 4 C0 2.68 0 1.36 0 0 Z " fill="#837D82" transform="translate(241,251)"/>
<path d="M0 0 C0.66 0.33 1.32 0.66 2 1 C1.67 2.65 1.34 4.3 1 6 C-0.875 5.6875 -0.875 5.6875 -3 5 C-3.66 4.01 -4.32 3.02 -5 2 C-2.525 2.495 -2.525 2.495 0 3 C0 2.01 0 1.02 0 0 Z " fill="#9C9A9C" transform="translate(157,196)"/>
<path d="M0 0 C0.33 0 0.66 0 1 0 C1 1.65 1 3.3 1 5 C1.66 5.33 2.32 5.66 3 6 C0.69 6 -1.62 6 -4 6 C-4 5.01 -4 4.02 -4 3 C-3.01 2.67 -2.02 2.34 -1 2 C-0.67 1.34 -0.34 0.68 0 0 Z " fill="#979396" transform="translate(256,474)"/>
<path d="M0 0 C0.99 0 1.98 0 3 0 C3.33 1.32 3.66 2.64 4 4 C4.99 4 5.98 4 7 4 C6.67 4.99 6.34 5.98 6 7 C6 6.34 6 5.68 6 5 C3.03 4.505 3.03 4.505 0 4 C0 2.68 0 1.36 0 0 Z " fill="#A4A0A4" transform="translate(295,473)"/>
<path d="M0 0 C0.99 0.33 1.98 0.66 3 1 C2.67 1.33 2.34 1.66 2 2 C2.66 2.33 3.32 2.66 4 3 C3.67 3.99 3.34 4.98 3 6 C1.68 6 0.36 6 -1 6 C-0.67 4.02 -0.34 2.04 0 0 Z " fill="#726D74" transform="translate(108,474)"/>
<path d="M0 0 C0.66 0 1.32 0 2 0 C3.49524178 2.2727675 4.78399715 4.5679943 6 7 C5.01 7 4.02 7 3 7 C3 6.34 3 5.68 3 5 C1.68 5.33 0.36 5.66 -1 6 C-1 3 -1 3 0 0 Z " fill="#96949D" transform="translate(110,471)"/>
<path d="M0 0 C0.33 0 0.66 0 1 0 C1.33 3.96 1.66 7.92 2 12 C1.34 12 0.68 12 0 12 C-2 9 -2 9 -1.7578125 6.73828125 C-1.44457031 5.53751953 -1.44457031 5.53751953 -1.125 4.3125 C-0.92132813 3.50425781 -0.71765625 2.69601562 -0.5078125 1.86328125 C-0.34023438 1.24839844 -0.17265625 0.63351562 0 0 Z " fill="#B7B5B9" transform="translate(316,458)"/>
<path d="M0 0 C1.32 0.99 2.64 1.98 4 3 C3.67 4.32 3.34 5.64 3 7 C2.67 6.34 2.34 5.68 2 5 C0.35 5 -1.3 5 -3 5 C-2 2 -2 2 0 0 Z " fill="#7B797C" transform="translate(105,459)"/>
<path d="M0 0 C0.33 1.32 0.66 2.64 1 4 C-0.65 4.66 -2.3 5.32 -4 6 C-4 4.35 -4 2.7 -4 1 C-2 0 -2 0 0 0 Z " fill="#9A9799" transform="translate(103,446)"/>
<path d="M0 0 C0.90105469 0.00902344 1.80210937 0.01804687 2.73046875 0.02734375 C3.41753906 0.03894531 4.10460937 0.05054688 4.8125 0.0625 C4.8125 0.3925 4.8125 0.7225 4.8125 1.0625 C1.8425 1.0625 -1.1275 1.0625 -4.1875 1.0625 C-4.1875 2.0525 -4.1875 3.0425 -4.1875 4.0625 C-5.5075 3.7325 -6.8275 3.4025 -8.1875 3.0625 C-8.1875 2.4025 -8.1875 1.7425 -8.1875 1.0625 C-5.17259443 0.05753148 -3.14568308 -0.04085303 0 0 Z " fill="#CCCBCC" transform="translate(260.1875,445.9375)"/>
<path d="M0 0 C2.475 0.495 2.475 0.495 5 1 C5.33 1.99 5.66 2.98 6 4 C4.35 4.66 2.7 5.32 1 6 C0.67 4.02 0.34 2.04 0 0 Z " fill="#858488" transform="translate(142,350)"/>
<path d="M0 0 C1.33333333 0 2.66666667 0 4 0 C4 1.65 4 3.3 4 5 C2.68 5 1.36 5 0 5 C0 4.34 0 3.68 0 3 C-0.66 2.67 -1.32 2.34 -2 2 C-1.34 1.34 -0.68 0.68 0 0 Z " fill="#736F74" transform="translate(227,350)"/>
<path d="M0 0 C0.33 0 0.66 0 1 0 C1 2.97 1 5.94 1 9 C1.99 9.33 2.98 9.66 4 10 C4 10.66 4 11.32 4 12 C2.68 12 1.36 12 0 12 C0 8.04 0 4.08 0 0 Z " fill="#A09EA0" transform="translate(72,468)"/>
<path d="M0 0 C2.64 0.33 5.28 0.66 8 1 C8 1.66 8 2.32 8 3 C5.36 3 2.72 3 0 3 C0 2.01 0 1.02 0 0 Z " fill="#827B82" transform="translate(293,477)"/>
<path d="M0 0 C0.33 0 0.66 0 1 0 C1 1.65 1 3.3 1 5 C1.99 5.33 2.98 5.66 4 6 C4.33 6.66 4.66 7.32 5 8 C3.68 8 2.36 8 1 8 C0.67 8.66 0.34 9.32 0 10 C-0.95024979 6.30458414 -0.95024979 3.69541586 0 0 Z " fill="#908B93" transform="translate(122,456)"/>
<path d="M0 0 C2.1875 0.3125 2.1875 0.3125 4 1 C3.34 2.32 2.68 3.64 2 5 C-0.475 4.01 -0.475 4.01 -3 3 C-1.75 1.4375 -1.75 1.4375 0 0 Z " fill="#A8A5A8" transform="translate(168,446)"/>
<path d="M0 0 C1.32 0 2.64 0 4 0 C4.33 1.98 4.66 3.96 5 6 C4.67 5.01 4.34 4.02 4 3 C2.68 3.33 1.36 3.66 0 4 C0 2.68 0 1.36 0 0 Z " fill="#706F73" transform="translate(149,337)"/>
<path d="M0 0 C0.33 0.66 0.66 1.32 1 2 C1.66 2 2.32 2 3 2 C2.34 4.31 1.68 6.62 1 9 C0.67 9 0.34 9 0 9 C0 7.35 0 5.7 0 4 C-0.99 3.67 -1.98 3.34 -3 3 C-2.01 2.01 -1.02 1.02 0 0 Z " fill="#AAA6AA" transform="translate(217,265)"/>
<path d="M0 0 C0.33 0.66 0.66 1.32 1 2 C1.66 2 2.32 2 3 2 C2.625 3.9375 2.625 3.9375 2 6 C1.01 6.495 1.01 6.495 0 7 C0 6.01 0 5.02 0 4 C-0.99 3.67 -1.98 3.34 -3 3 C-2.01 2.01 -1.02 1.02 0 0 Z " fill="#B0ACB1" transform="translate(308,186)"/>
<path d="M0 0 C4.875 4.75 4.875 4.75 6 7 C1.125 6.125 1.125 6.125 0 5 C-0.04063832 3.33382885 -0.042721 1.66611905 0 0 Z " fill="#939194" transform="translate(309,457)"/>
<path d="M0 0 C2.97 0.495 2.97 0.495 6 1 C6 1.66 6 2.32 6 3 C4.02 3.33 2.04 3.66 0 4 C0 2.68 0 1.36 0 0 Z " fill="#938E94" transform="translate(280,446)"/>
<path d="M0 0 C0.66 0 1.32 0 2 0 C2.66 1.65 3.32 3.3 4 5 C3.01 5.33 2.02 5.66 1 6 C0.01 5.01 -0.98 4.02 -2 3 C-1.34 2.67 -0.68 2.34 0 2 C0 1.34 0 0.68 0 0 Z " fill="#757376" transform="translate(225,270)"/>
<path d="M0 0 C1.65 0 3.3 0 5 0 C5 0.66 5 1.32 5 2 C5.66 2 6.32 2 7 2 C7 2.66 7 3.32 7 4 C4.69 3.67 2.38 3.34 0 3 C0 2.01 0 1.02 0 0 Z " fill="#87848B" transform="translate(296,265)"/>
<path d="M0 0 C1.32 0.33 2.64 0.66 4 1 C4.33 2.32 4.66 3.64 5 5 C3.68 4.67 2.36 4.34 1 4 C0.67 2.68 0.34 1.36 0 0 Z " fill="#827D82" transform="translate(161,202)"/>
<path d="M0 0 C2.64 0.33 5.28 0.66 8 1 C8 1.66 8 2.32 8 3 C5.03 3 2.06 3 -1 3 C-0.67 2.01 -0.34 1.02 0 0 Z " fill="#9C949D" transform="translate(352,477)"/>
<path d="M0 0 C0.66 0.33 1.32 0.66 2 1 C2 1.66 2 2.32 2 3 C2.66 3 3.32 3 4 3 C4 3.66 4 4.32 4 5 C2.02 5.99 2.02 5.99 0 7 C0 6.01 0 5.02 0 4 C-0.99 3.34 -1.98 2.68 -3 2 C-2.01 2 -1.02 2 0 2 C0 1.34 0 0.68 0 0 Z " fill="#B9B5BA" transform="translate(227,473)"/>
<path d="M0 0 C0 1.65 0 3.3 0 5 C-1.65 5 -3.3 5 -5 5 C-5 4.01 -5 3.02 -5 2 C-1.125 0 -1.125 0 0 0 Z " fill="#908B92" transform="translate(68,475)"/>
<path d="M0 0 C0.33 0 0.66 0 1 0 C1 2.64 1 5.28 1 8 C0.34 8 -0.32 8 -1 8 C-1 7.34 -1 6.68 -1 6 C-1.66 6 -2.32 6 -3 6 C-3 5.34 -3 4.68 -3 4 C-2.34 4 -1.68 4 -1 4 C-0.67 2.68 -0.34 1.36 0 0 Z " fill="#7E797E" transform="translate(348,470)"/>
<path d="M0 0 C0.99 0 1.98 0 3 0 C4.75 2.3125 4.75 2.3125 6 5 C5.67 5.99 5.34 6.98 5 8 C4.16382818 6.8562364 3.33113541 5.70992861 2.5 4.5625 C2.0359375 3.92441406 1.571875 3.28632813 1.09375 2.62890625 C0 1 0 1 0 0 Z " fill="#A7A1AA" transform="translate(299,455)"/>
<path d="M0 0 C0.99 1.32 1.98 2.64 3 4 C2.34 5.32 1.68 6.64 1 8 C0.34 7.34 -0.32 6.68 -1 6 C-0.625 2.875 -0.625 2.875 0 0 Z " fill="#979396" transform="translate(98,452)"/>
<path d="M0 0 C1.22589844 0.01353516 1.22589844 0.01353516 2.4765625 0.02734375 C3.41628906 0.04474609 3.41628906 0.04474609 4.375 0.0625 C4.375 0.3925 4.375 0.7225 4.375 1.0625 C1.075 1.7225 -2.225 2.3825 -5.625 3.0625 C-5.955 2.4025 -6.285 1.7425 -6.625 1.0625 C-4.21954362 -0.14022819 -2.67503047 -0.03821472 0 0 Z " fill="#817C82" transform="translate(199.625,446.9375)"/>
<path d="M0 0 C1.32 0 2.64 0 4 0 C4.33 1.32 4.66 2.64 5 4 C4.01 4.495 4.01 4.495 3 5 C2.01 4.67 1.02 4.34 0 4 C0 2.68 0 1.36 0 0 Z " fill="#8A868A" transform="translate(271,313)"/>
<path d="M0 0 C0.33 0 0.66 0 1 0 C1.144375 1.093125 1.28875 2.18625 1.4375 3.3125 C1.88288104 6.93122987 1.88288104 6.93122987 3 10 C1.68 10 0.36 10 -1 10 C-0.67 6.7 -0.34 3.4 0 0 Z " fill="#9F9EA0" transform="translate(164,274)"/>
<path d="M0 0 C-0.66 1.65 -1.32 3.3 -2 5 C-2.33 4.34 -2.66 3.68 -3 3 C-5.01669827 1.86649466 -5.01669827 1.86649466 -7 1 C-3.375 -1.125 -3.375 -1.125 0 0 Z " fill="#A3A0A3" transform="translate(240,275)"/>
<path d="M0 0 C1.423125 0.2784375 1.423125 0.2784375 2.875 0.5625 C5.89868793 1.28686632 5.89868793 1.28686632 8 0 C7.67 1.32 7.34 2.64 7 4 C4.625 3.6875 4.625 3.6875 2 3 C1.34 2.01 0.68 1.02 0 0 Z " fill="#BFBCBE" transform="translate(196,242)"/>
<path d="M0 0 C0.66 0.33 1.32 0.66 2 1 C0.02 3.97 0.02 3.97 -2 7 C-2.99 6.67 -3.98 6.34 -5 6 C-4.34 5.67 -3.68 5.34 -3 5 C-2.30062468 3.68352881 -1.63270867 2.34977849 -1 1 C-0.67 0.67 -0.34 0.34 0 0 Z " fill="#A09FA2" transform="translate(271,220)"/>
<path d="M0 0 C1.65 0 3.3 0 5 0 C5 0.66 5 1.32 5 2 C5.66 2.33 6.32 2.66 7 3 C4.69 3 2.38 3 0 3 C0 2.01 0 1.02 0 0 Z " fill="#9E989E" transform="translate(186,477)"/>
<path d="M0 0 C-0.8125 1.9375 -0.8125 1.9375 -2 4 C-2.99 4.33 -3.98 4.66 -5 5 C-5 3.68 -5 2.36 -5 1 C-3 0 -3 0 0 0 Z " fill="#9C9C9F" transform="translate(259,241)"/>
</svg>
